<svg width="1000" height="563" viewBox="0 0 1000 563" fill="none" xmlns="http://www.w3.org/2000/svg">
<rect width="1000" height="563" fill="white"/>
<rect x="141.5" y="164.5" width="743" height="356" stroke="#4A4A4A"/>
<g clip-path="url(#clip0_611_26)">
<path d="M389.514 332.428C389.514 332.428 375.371 313.534 375.362 313.523C375.362 313.523 375.362 313.522 375.361 313.521C375.341 313.487 375.023 312.962 374.1 312.668L315.162 296.026C314.729 295.904 314.271 295.904 313.838 296.026L254.9 312.668C254.9 312.668 254.095 312.9 253.611 313.553C253.418 313.814 239.486 332.428 239.486 332.428C239.018 333.053 238.878 333.863 239.109 334.609C239.34 335.354 239.914 335.943 240.653 336.194L253.126 340.427V374.276C253.126 375.262 253.72 376.15 254.631 376.526L313.57 400.881C313.583 400.887 313.597 400.893 313.611 400.898C313.781 400.97 314.008 401.066 314.5 401.066C315.032 401.066 315.43 400.881 315.43 400.881L374.369 376.526C375.28 376.15 375.874 375.261 375.874 374.276V340.426L388.347 336.193C389.085 335.943 389.659 335.353 389.891 334.608C390.121 333.863 389.981 333.053 389.514 332.428ZM245.396 332.66L256.516 317.801L261.013 319.04L286.325 326.012L310.261 332.607L296.223 349.91L245.396 332.66ZM312.065 394.988L257.997 372.647V342.08L296.263 355.068C296.52 355.156 296.784 355.197 297.046 355.197C297.766 355.197 298.466 354.877 298.937 354.296L312.065 338.116L312.065 394.988ZM314.5 328.723L264.626 314.983L314.5 300.9L364.373 314.983L314.5 328.723ZM371.003 372.647L316.935 394.988V338.116L330.063 354.297C330.534 354.877 331.234 355.198 331.954 355.198C332.216 355.198 332.48 355.157 332.737 355.069L371.003 342.08V372.647ZM332.777 349.91L318.739 332.607L372.484 317.801L383.604 332.66L332.777 349.91Z" fill="#666666"/>
<path d="M389.514 332.428C389.514 332.428 375.371 313.534 375.362 313.523C375.362 313.523 375.362 313.522 375.361 313.521C375.341 313.487 375.023 312.962 374.1 312.668L315.162 296.026C314.729 295.904 314.271 295.904 313.838 296.026L254.9 312.668C254.9 312.668 254.095 312.9 253.611 313.553C253.418 313.814 239.486 332.428 239.486 332.428C239.018 333.053 238.878 333.863 239.109 334.609C239.34 335.354 239.914 335.943 240.653 336.194L253.126 340.427V374.276C253.126 375.262 253.72 376.15 254.631 376.526L313.57 400.881C313.583 400.887 313.597 400.893 313.611 400.898C313.781 400.97 314.008 401.066 314.5 401.066C315.032 401.066 315.43 400.881 315.43 400.881L374.369 376.526C375.28 376.15 375.874 375.261 375.874 374.276V340.426L388.347 336.193C389.085 335.943 389.659 335.353 389.891 334.608C390.121 333.863 389.981 333.053 389.514 332.428ZM245.396 332.66L256.516 317.801L261.013 319.04L286.325 326.012L310.261 332.607L296.223 349.91L245.396 332.66ZM312.065 394.988L257.997 372.647V342.08L296.263 355.068C296.52 355.156 296.784 355.197 297.046 355.197C297.766 355.197 298.466 354.877 298.937 354.296L312.065 338.116L312.065 394.988ZM314.5 328.723L264.626 314.983L314.5 300.9L364.373 314.983L314.5 328.723ZM371.003 372.647L316.935 394.988V338.116L330.063 354.297C330.534 354.877 331.234 355.198 331.954 355.198C332.216 355.198 332.48 355.157 332.737 355.069L371.003 342.08V372.647ZM332.777 349.91L318.739 332.607L372.484 317.801L383.604 332.66L332.777 349.91Z" stroke="black"/>
</g>
<path d="M357 234.19L349.347 319.509L314.949 329L280.645 319.522L273 234.19H357Z" fill="#A8C98E"/>
<path d="M342.796 314.076L349.336 241.167H315V321.746L342.796 314.076Z" fill="#A8C98E"/>
<path d="M290.525 272.816L291.467 283.281H315V272.816H290.525Z" fill="#EBEBEB"/>
<path d="M315 251.633H314.964H288.631L289.587 262.099H315V251.633Z" fill="#EBEBEB"/>
<path d="M315 310.885V299.996L314.954 300.008L303.242 296.861L302.494 288.514H296.803H291.937L293.411 304.947L314.952 310.898L315 310.885Z" fill="#EBEBEB"/>
<path d="M292.769 211H305.505V216.301H298.095V221.602H305.505V226.902H292.769V211Z" fill="black"/>
<path d="M308.053 211H320.789V215.609H313.379V216.531H320.789V227.133H308.053V222.293H315.463V221.371H308.053V211Z" fill="black"/>
<path d="M323.337 211H336.073V215.609H328.663V216.531H336.073V227.133H323.337V222.293H330.747V221.371H323.337V211Z" fill="black"/>
<path d="M327.913 283.281L326.692 296.854L314.964 300.005V310.893L336.522 304.947L336.68 303.179L339.151 275.626L339.408 272.816L341.306 251.633H314.964V262.099H329.782L328.825 272.816H314.964V283.281H327.913Z" fill="white"/>
<g clip-path="url(#clip1_611_26)">
<path d="M785.514 333.428C785.514 333.428 771.371 314.534 771.362 314.523C771.362 314.523 771.362 314.522 771.361 314.521C771.341 314.487 771.023 313.962 770.1 313.668L711.162 297.026C710.729 296.904 710.271 296.904 709.838 297.026L650.9 313.668C650.9 313.668 650.095 313.9 649.611 314.553C649.418 314.814 635.486 333.428 635.486 333.428C635.018 334.053 634.878 334.863 635.109 335.609C635.34 336.354 635.914 336.943 636.653 337.194L649.126 341.427V375.276C649.126 376.262 649.72 377.15 650.631 377.526L709.57 401.881C709.583 401.887 709.597 401.893 709.611 401.898C709.781 401.97 710.008 402.066 710.5 402.066C711.032 402.066 711.43 401.881 711.43 401.881L770.368 377.526C771.28 377.15 771.874 376.261 771.874 375.276V341.426L784.347 337.193C785.085 336.943 785.659 336.353 785.891 335.608C786.121 334.863 785.981 334.053 785.514 333.428ZM641.396 333.66L652.516 318.801L657.013 320.04L682.325 327.012L706.261 333.607L692.223 350.91L641.396 333.66ZM708.065 395.988L653.997 373.647V343.08L692.263 356.068C692.52 356.156 692.784 356.197 693.046 356.197C693.766 356.197 694.466 355.877 694.937 355.296L708.065 339.116L708.065 395.988ZM710.5 329.723L660.626 315.983L710.5 301.9L760.373 315.983L710.5 329.723ZM767.003 373.647L712.935 395.988V339.116L726.063 355.297C726.534 355.877 727.234 356.198 727.954 356.198C728.216 356.198 728.48 356.157 728.737 356.069L767.003 343.08V373.647ZM728.777 350.91L714.739 333.607L768.484 318.801L779.604 333.66L728.777 350.91Z" fill="#666666"/>
<path d="M785.514 333.428C785.514 333.428 771.371 314.534 771.362 314.523C771.362 314.523 771.362 314.522 771.361 314.521C771.341 314.487 771.023 313.962 770.1 313.668L711.162 297.026C710.729 296.904 710.271 296.904 709.838 297.026L650.9 313.668C650.9 313.668 650.095 313.9 649.611 314.553C649.418 314.814 635.486 333.428 635.486 333.428C635.018 334.053 634.878 334.863 635.109 335.609C635.34 336.354 635.914 336.943 636.653 337.194L649.126 341.427V375.276C649.126 376.262 649.72 377.15 650.631 377.526L709.57 401.881C709.583 401.887 709.597 401.893 709.611 401.898C709.781 401.97 710.008 402.066 710.5 402.066C711.032 402.066 711.43 401.881 711.43 401.881L770.368 377.526C771.28 377.15 771.874 376.261 771.874 375.276V341.426L784.347 337.193C785.085 336.943 785.659 336.353 785.891 335.608C786.121 334.863 785.981 334.053 785.514 333.428ZM641.396 333.66L652.516 318.801L657.013 320.04L682.325 327.012L706.261 333.607L692.223 350.91L641.396 333.66ZM708.065 395.988L653.997 373.647V343.08L692.263 356.068C692.52 356.156 692.784 356.197 693.046 356.197C693.766 356.197 694.466 355.877 694.937 355.296L708.065 339.116L708.065 395.988ZM710.5 329.723L660.626 315.983L710.5 301.9L760.373 315.983L710.5 329.723ZM767.003 373.647L712.935 395.988V339.116L726.063 355.297C726.534 355.877 727.234 356.198 727.954 356.198C728.216 356.198 728.48 356.157 728.737 356.069L767.003 343.08V373.647ZM728.777 350.91L714.739 333.607L768.484 318.801L779.604 333.66L728.777 350.91Z" stroke="black"/>
</g>
<path d="M753 234.386L745.347 320.429L710.949 330L676.645 320.442L669 234.386H753Z" fill="#EA7C7C"/>
<path d="M738.796 314.95L745.336 241.423H711V322.684L738.796 314.95Z" fill="#EA7C7C"/>
<path d="M686.525 273.34L687.467 283.894H711V273.34H686.525Z" fill="#EBEBEB"/>
<path d="M711 251.977H710.964H684.631L685.587 262.532H711V251.977Z" fill="#EBEBEB"/>
<path d="M711 311.731V300.75L710.954 300.763L699.242 297.589L698.494 289.171H692.803H687.937L689.411 305.743L710.952 311.745L711 311.731Z" fill="#EBEBEB"/>
<path d="M688.769 211H701.505V216.346H694.095V221.691H701.505V227.037H688.769V211Z" fill="black"/>
<path d="M704.053 211H716.789V215.648H709.379V216.578H716.789V227.27H704.053V222.389H711.463V221.459H704.053V211Z" fill="black"/>
<path d="M719.337 211H732.073V215.648H724.663V216.578H732.073V227.27H719.337V222.389H726.747V221.459H719.337V211Z" fill="black"/>
<path d="M723.913 283.894L722.692 297.582L710.964 300.759V311.74L732.522 305.743L732.68 303.96L735.151 276.174L735.408 273.34L737.306 251.977H710.964V262.532H725.782L724.825 273.34H710.964V283.894H723.913Z" fill="white"/>
<g clip-path="url(#clip2_611_26)">
<path d="M587.514 332.428C587.514 332.428 573.371 313.534 573.362 313.523C573.362 313.523 573.362 313.522 573.361 313.521C573.341 313.487 573.023 312.962 572.1 312.668L513.162 296.026C512.729 295.904 512.271 295.904 511.838 296.026L452.9 312.668C452.9 312.668 452.095 312.9 451.611 313.553C451.418 313.814 437.486 332.428 437.486 332.428C437.018 333.053 436.878 333.863 437.109 334.609C437.34 335.354 437.914 335.943 438.653 336.194L451.126 340.427V374.276C451.126 375.262 451.72 376.15 452.631 376.526L511.57 400.881C511.583 400.887 511.597 400.893 511.611 400.898C511.781 400.97 512.008 401.066 512.5 401.066C513.032 401.066 513.43 400.881 513.43 400.881L572.369 376.526C573.28 376.15 573.874 375.261 573.874 374.276V340.426L586.347 336.193C587.085 335.943 587.659 335.353 587.891 334.608C588.121 333.863 587.981 333.053 587.514 332.428ZM443.396 332.66L454.516 317.801L459.013 319.04L484.325 326.012L508.261 332.607L494.223 349.91L443.396 332.66ZM510.065 394.988L455.997 372.647V342.08L494.263 355.068C494.52 355.156 494.784 355.197 495.046 355.197C495.766 355.197 496.466 354.877 496.937 354.296L510.065 338.116L510.065 394.988ZM512.5 328.723L462.626 314.983L512.5 300.9L562.373 314.983L512.5 328.723ZM569.003 372.647L514.935 394.988V338.116L528.063 354.297C528.534 354.877 529.234 355.198 529.954 355.198C530.216 355.198 530.48 355.157 530.737 355.069L569.003 342.08V372.647ZM530.777 349.91L516.739 332.607L570.484 317.801L581.604 332.66L530.777 349.91Z" fill="#666666"/>
<path d="M587.514 332.428C587.514 332.428 573.371 313.534 573.362 313.523C573.362 313.523 573.362 313.522 573.361 313.521C573.341 313.487 573.023 312.962 572.1 312.668L513.162 296.026C512.729 295.904 512.271 295.904 511.838 296.026L452.9 312.668C452.9 312.668 452.095 312.9 451.611 313.553C451.418 313.814 437.486 332.428 437.486 332.428C437.018 333.053 436.878 333.863 437.109 334.609C437.34 335.354 437.914 335.943 438.653 336.194L451.126 340.427V374.276C451.126 375.262 451.72 376.15 452.631 376.526L511.57 400.881C511.583 400.887 511.597 400.893 511.611 400.898C511.781 400.97 512.008 401.066 512.5 401.066C513.032 401.066 513.43 400.881 513.43 400.881L572.369 376.526C573.28 376.15 573.874 375.261 573.874 374.276V340.426L586.347 336.193C587.085 335.943 587.659 335.353 587.891 334.608C588.121 333.863 587.981 333.053 587.514 332.428ZM443.396 332.66L454.516 317.801L459.013 319.04L484.325 326.012L508.261 332.607L494.223 349.91L443.396 332.66ZM510.065 394.988L455.997 372.647V342.08L494.263 355.068C494.52 355.156 494.784 355.197 495.046 355.197C495.766 355.197 496.466 354.877 496.937 354.296L510.065 338.116L510.065 394.988ZM512.5 328.723L462.626 314.983L512.5 300.9L562.373 314.983L512.5 328.723ZM569.003 372.647L514.935 394.988V338.116L528.063 354.297C528.534 354.877 529.234 355.198 529.954 355.198C530.216 355.198 530.48 355.157 530.737 355.069L569.003 342.08V372.647ZM530.777 349.91L516.739 332.607L570.484 317.801L581.604 332.66L530.777 349.91Z" stroke="black"/>
</g>
<path d="M555 234.386L547.347 320.429L512.949 330L478.645 320.442L471 234.386H555Z" fill="#D671DF"/>
<path d="M540.796 314.95L547.336 241.423H513V322.684L540.796 314.95Z" fill="#D671DF"/>
<path d="M488.525 273.34L489.467 283.894H513V273.34H488.525Z" fill="#EBEBEB"/>
<path d="M513 251.977H512.964H486.631L487.587 262.532H513V251.977Z" fill="#EBEBEB"/>
<path d="M513 311.731V300.75L512.954 300.763L501.242 297.589L500.494 289.171H494.803H489.937L491.411 305.743L512.952 311.745L513 311.731Z" fill="#EBEBEB"/>
<path d="M490.769 211H503.505V216.346H496.095V221.691H503.505V227.037H490.769V211Z" fill="black"/>
<path d="M506.053 211H518.789V215.648H511.379V216.578H518.789V227.27H506.053V222.389H513.463V221.459H506.053V211Z" fill="black"/>
<path d="M521.337 211H534.073V215.648H526.663V216.578H534.073V227.27H521.337V222.389H528.747V221.459H521.337V211Z" fill="black"/>
<path d="M525.913 283.894L524.692 297.582L512.964 300.759V311.74L534.522 305.743L534.68 303.96L537.151 276.174L537.408 273.34L539.306 251.977H512.964V262.532H527.782L526.825 273.34H512.964V283.894H525.913Z" fill="white"/>
<path d="M225 73.3795L209.786 244.018L141.398 263L73.198 244.045L58 73.3795H225Z" fill="#264DE4"/>
<path d="M196.761 233.152L209.762 87.334H141.5V248.491L196.761 233.152Z" fill="#2965F1"/>
<path d="M92.8411 150.631L94.7149 171.562H141.5V150.631H92.8411Z" fill="#EBEBEB"/>
<path d="M141.5 108.266H141.428H89.076L90.9765 129.197H141.5V108.266Z" fill="#EBEBEB"/>
<path d="M141.5 226.77V204.992L141.408 205.017L118.124 198.722L116.636 182.029H105.322H95.649L98.5781 214.894L141.404 226.797L141.5 226.77Z" fill="#EBEBEB"/>
<path d="M97.3023 27H122.624V37.6016H107.891V48.2031H122.624V58.8047H97.3023V27Z" fill="black"/>
<path d="M127.688 27H153.01V36.2188H138.277V38.0625H153.01V59.2656H127.688V49.5859H142.421V47.7422H127.688V27Z" fill="black"/>
<path d="M158.074 27H183.396V36.2188H168.663V38.0625H183.396V59.2656H158.074V49.5859H172.807V47.7422H158.074V27Z" fill="black"/>
<path d="M167.172 171.562L164.745 198.709L141.428 205.01V226.786L184.288 214.894L184.602 211.357L189.515 156.252L190.025 150.631L193.799 108.266H141.428V129.197H170.887L168.985 150.631H141.428V171.562H167.172Z" fill="white"/>
<defs>
<clipPath id="clip0_611_26">
<rect width="151" height="151" fill="white" transform="translate(239 273)"/>
</clipPath>
<clipPath id="clip1_611_26">
<rect width="151" height="151" fill="white" transform="translate(635 274)"/>
</clipPath>
<clipPath id="clip2_611_26">
<rect width="151" height="151" fill="white" transform="translate(437 273)"/>
</clipPath>
</defs>
</svg>
