<svg width="1000" height="563" viewBox="0 0 1000 563" fill="none" xmlns="http://www.w3.org/2000/svg">
<rect width="1000" height="563" fill="#F3F3F3"/>
<rect x="148.5" y="184.5" width="743" height="309" stroke="#7D7CA7"/>
<g clip-path="url(#clip0_611_26)">
<path d="M396.514 362.428C396.514 362.428 382.371 343.534 382.362 343.523C382.362 343.523 382.362 343.522 382.361 343.521C382.341 343.487 382.023 342.962 381.1 342.668L322.162 326.026C321.729 325.904 321.271 325.904 320.838 326.026L261.9 342.668C261.9 342.668 261.095 342.9 260.611 343.553C260.418 343.814 246.486 362.428 246.486 362.428C246.018 363.053 245.878 363.863 246.109 364.609C246.34 365.354 246.914 365.943 247.653 366.194L260.126 370.427V404.276C260.126 405.262 260.72 406.15 261.631 406.526L320.57 430.881C320.583 430.887 320.597 430.893 320.611 430.898C320.781 430.97 321.008 431.066 321.5 431.066C322.032 431.066 322.43 430.881 322.43 430.881L381.369 406.526C382.28 406.15 382.874 405.261 382.874 404.276V370.426L395.347 366.193C396.085 365.943 396.659 365.353 396.891 364.608C397.121 363.863 396.981 363.053 396.514 362.428ZM252.396 362.66L263.516 347.801L268.013 349.04L293.325 356.012L317.261 362.607L303.223 379.91L252.396 362.66ZM319.065 424.988L264.997 402.647V372.08L303.263 385.068C303.52 385.156 303.784 385.197 304.046 385.197C304.766 385.197 305.466 384.877 305.937 384.296L319.065 368.116L319.065 424.988ZM321.5 358.723L271.626 344.983L321.5 330.9L371.373 344.983L321.5 358.723ZM378.003 402.647L323.935 424.988V368.116L337.063 384.297C337.534 384.877 338.234 385.198 338.954 385.198C339.216 385.198 339.48 385.157 339.737 385.069L378.003 372.08V402.647ZM339.777 379.91L325.739 362.607L379.484 347.801L390.604 362.66L339.777 379.91Z" fill="#7D7CA7"/>
<path d="M396.514 362.428C396.514 362.428 382.371 343.534 382.362 343.523C382.362 343.523 382.362 343.522 382.361 343.521C382.341 343.487 382.023 342.962 381.1 342.668L322.162 326.026C321.729 325.904 321.271 325.904 320.838 326.026L261.9 342.668C261.9 342.668 261.095 342.9 260.611 343.553C260.418 343.814 246.486 362.428 246.486 362.428C246.018 363.053 245.878 363.863 246.109 364.609C246.34 365.354 246.914 365.943 247.653 366.194L260.126 370.427V404.276C260.126 405.262 260.72 406.15 261.631 406.526L320.57 430.881C320.583 430.887 320.597 430.893 320.611 430.898C320.781 430.97 321.008 431.066 321.5 431.066C322.032 431.066 322.43 430.881 322.43 430.881L381.369 406.526C382.28 406.15 382.874 405.261 382.874 404.276V370.426L395.347 366.193C396.085 365.943 396.659 365.353 396.891 364.608C397.121 363.863 396.981 363.053 396.514 362.428ZM252.396 362.66L263.516 347.801L268.013 349.04L293.325 356.012L317.261 362.607L303.223 379.91L252.396 362.66ZM319.065 424.988L264.997 402.647V372.08L303.263 385.068C303.52 385.156 303.784 385.197 304.046 385.197C304.766 385.197 305.466 384.877 305.937 384.296L319.065 368.116L319.065 424.988ZM321.5 358.723L271.626 344.983L321.5 330.9L371.373 344.983L321.5 358.723ZM378.003 402.647L323.935 424.988V368.116L337.063 384.297C337.534 384.877 338.234 385.198 338.954 385.198C339.216 385.198 339.48 385.157 339.737 385.069L378.003 372.08V402.647ZM339.777 379.91L325.739 362.607L379.484 347.801L390.604 362.66L339.777 379.91Z" stroke="#7D7CA7"/>
</g>
<path d="M364 264.19L356.347 349.509L321.949 359L287.645 349.522L280 264.19H364Z" fill="#A8C98E"/>
<path d="M349.796 344.076L356.336 271.167H322V351.746L349.796 344.076Z" fill="#A8C98E"/>
<path d="M297.525 302.816L298.467 313.281H322V302.816H297.525Z" fill="#EBEBEB"/>
<path d="M322 281.633H321.964H295.631L296.587 292.099H322V281.633Z" fill="#EBEBEB"/>
<path d="M322 340.885V329.996L321.954 330.008L310.242 326.861L309.494 318.514H303.803H298.937L300.411 334.947L321.952 340.898L322 340.885Z" fill="#EBEBEB"/>
<path d="M299.769 241H312.505V246.301H305.095V251.602H312.505V256.902H299.769V241Z" fill="#A8C98E"/>
<path d="M315.053 241H327.789V245.609H320.379V246.531H327.789V257.133H315.053V252.293H322.463V251.371H315.053V241Z" fill="#A8C98E"/>
<path d="M330.337 241H343.073V245.609H335.663V246.531H343.073V257.133H330.337V252.293H337.747V251.371H330.337V241Z" fill="#A8C98E"/>
<path d="M334.913 313.281L333.692 326.854L321.964 330.005V340.893L343.522 334.947L343.68 333.179L346.151 305.626L346.408 302.816L348.306 281.633H321.964V292.099H336.782L335.825 302.816H321.964V313.281H334.913Z" fill="white"/>
<g clip-path="url(#clip1_611_26)">
<path d="M792.514 363.428C792.514 363.428 778.371 344.534 778.362 344.523C778.362 344.523 778.362 344.522 778.361 344.521C778.341 344.487 778.023 343.962 777.1 343.668L718.162 327.026C717.729 326.904 717.271 326.904 716.838 327.026L657.9 343.668C657.9 343.668 657.095 343.9 656.611 344.553C656.418 344.814 642.486 363.428 642.486 363.428C642.018 364.053 641.878 364.863 642.109 365.609C642.34 366.354 642.914 366.943 643.653 367.194L656.126 371.427V405.276C656.126 406.262 656.72 407.15 657.631 407.526L716.57 431.881C716.583 431.887 716.597 431.893 716.611 431.898C716.781 431.97 717.008 432.066 717.5 432.066C718.032 432.066 718.43 431.881 718.43 431.881L777.368 407.526C778.28 407.15 778.874 406.261 778.874 405.276V371.426L791.347 367.193C792.085 366.943 792.659 366.353 792.891 365.608C793.121 364.863 792.981 364.053 792.514 363.428ZM648.396 363.66L659.516 348.801L664.013 350.04L689.325 357.012L713.261 363.607L699.223 380.91L648.396 363.66ZM715.065 425.988L660.997 403.647V373.08L699.263 386.068C699.52 386.156 699.784 386.197 700.046 386.197C700.766 386.197 701.466 385.877 701.937 385.296L715.065 369.116L715.065 425.988ZM717.5 359.723L667.626 345.983L717.5 331.9L767.373 345.983L717.5 359.723ZM774.003 403.647L719.935 425.988V369.116L733.063 385.297C733.534 385.877 734.234 386.198 734.954 386.198C735.216 386.198 735.48 386.157 735.737 386.069L774.003 373.08V403.647ZM735.777 380.91L721.739 363.607L775.484 348.801L786.604 363.66L735.777 380.91Z" fill="#7D7CA7"/>
<path d="M792.514 363.428C792.514 363.428 778.371 344.534 778.362 344.523C778.362 344.523 778.362 344.522 778.361 344.521C778.341 344.487 778.023 343.962 777.1 343.668L718.162 327.026C717.729 326.904 717.271 326.904 716.838 327.026L657.9 343.668C657.9 343.668 657.095 343.9 656.611 344.553C656.418 344.814 642.486 363.428 642.486 363.428C642.018 364.053 641.878 364.863 642.109 365.609C642.34 366.354 642.914 366.943 643.653 367.194L656.126 371.427V405.276C656.126 406.262 656.72 407.15 657.631 407.526L716.57 431.881C716.583 431.887 716.597 431.893 716.611 431.898C716.781 431.97 717.008 432.066 717.5 432.066C718.032 432.066 718.43 431.881 718.43 431.881L777.368 407.526C778.28 407.15 778.874 406.261 778.874 405.276V371.426L791.347 367.193C792.085 366.943 792.659 366.353 792.891 365.608C793.121 364.863 792.981 364.053 792.514 363.428ZM648.396 363.66L659.516 348.801L664.013 350.04L689.325 357.012L713.261 363.607L699.223 380.91L648.396 363.66ZM715.065 425.988L660.997 403.647V373.08L699.263 386.068C699.52 386.156 699.784 386.197 700.046 386.197C700.766 386.197 701.466 385.877 701.937 385.296L715.065 369.116L715.065 425.988ZM717.5 359.723L667.626 345.983L717.5 331.9L767.373 345.983L717.5 359.723ZM774.003 403.647L719.935 425.988V369.116L733.063 385.297C733.534 385.877 734.234 386.198 734.954 386.198C735.216 386.198 735.48 386.157 735.737 386.069L774.003 373.08V403.647ZM735.777 380.91L721.739 363.607L775.484 348.801L786.604 363.66L735.777 380.91Z" stroke="#7D7CA7"/>
</g>
<path d="M760 264.386L752.347 350.429L717.949 360L683.645 350.442L676 264.386H760Z" fill="#EA7C7C"/>
<path d="M745.796 344.95L752.336 271.423H718V352.684L745.796 344.95Z" fill="#EA7C7C"/>
<path d="M693.525 303.34L694.467 313.894H718V303.34H693.525Z" fill="#EBEBEB"/>
<path d="M718 281.977H717.964H691.631L692.587 292.532H718V281.977Z" fill="#EBEBEB"/>
<path d="M718 341.731V330.75L717.954 330.763L706.242 327.589L705.494 319.171H699.803H694.937L696.411 335.743L717.952 341.745L718 341.731Z" fill="#EBEBEB"/>
<path d="M695.769 241H708.505V246.346H701.095V251.691H708.505V257.037H695.769V241Z" fill="#EA7C7C"/>
<path d="M711.053 241H723.789V245.648H716.379V246.578H723.789V257.27H711.053V252.389H718.463V251.459H711.053V241Z" fill="#EA7C7C"/>
<path d="M726.337 241H739.073V245.648H731.663V246.578H739.073V257.27H726.337V252.389H733.747V251.459H726.337V241Z" fill="#EA7C7C"/>
<path d="M730.913 313.894L729.692 327.582L717.964 330.759V341.74L739.522 335.743L739.68 333.96L742.151 306.174L742.408 303.34L744.306 281.977H717.964V292.532H732.782L731.825 303.34H717.964V313.894H730.913Z" fill="white"/>
<g clip-path="url(#clip2_611_26)">
<path d="M594.514 362.428C594.514 362.428 580.371 343.534 580.362 343.523C580.362 343.523 580.362 343.522 580.361 343.521C580.341 343.487 580.023 342.962 579.1 342.668L520.162 326.026C519.729 325.904 519.271 325.904 518.838 326.026L459.9 342.668C459.9 342.668 459.095 342.9 458.611 343.553C458.418 343.814 444.486 362.428 444.486 362.428C444.018 363.053 443.878 363.863 444.109 364.609C444.34 365.354 444.914 365.943 445.653 366.194L458.126 370.427V404.276C458.126 405.262 458.72 406.15 459.631 406.526L518.57 430.881C518.583 430.887 518.597 430.893 518.611 430.898C518.781 430.97 519.008 431.066 519.5 431.066C520.032 431.066 520.43 430.881 520.43 430.881L579.369 406.526C580.28 406.15 580.874 405.261 580.874 404.276V370.426L593.347 366.193C594.085 365.943 594.659 365.353 594.891 364.608C595.121 363.863 594.981 363.053 594.514 362.428ZM450.396 362.66L461.516 347.801L466.013 349.04L491.325 356.012L515.261 362.607L501.223 379.91L450.396 362.66ZM517.065 424.988L462.997 402.647V372.08L501.263 385.068C501.52 385.156 501.784 385.197 502.046 385.197C502.766 385.197 503.466 384.877 503.937 384.296L517.065 368.116L517.065 424.988ZM519.5 358.723L469.626 344.983L519.5 330.9L569.373 344.983L519.5 358.723ZM576.003 402.647L521.935 424.988V368.116L535.063 384.297C535.534 384.877 536.234 385.198 536.954 385.198C537.216 385.198 537.48 385.157 537.737 385.069L576.003 372.08V402.647ZM537.777 379.91L523.739 362.607L577.484 347.801L588.604 362.66L537.777 379.91Z" fill="#7D7CA7"/>
<path d="M594.514 362.428C594.514 362.428 580.371 343.534 580.362 343.523C580.362 343.523 580.362 343.522 580.361 343.521C580.341 343.487 580.023 342.962 579.1 342.668L520.162 326.026C519.729 325.904 519.271 325.904 518.838 326.026L459.9 342.668C459.9 342.668 459.095 342.9 458.611 343.553C458.418 343.814 444.486 362.428 444.486 362.428C444.018 363.053 443.878 363.863 444.109 364.609C444.34 365.354 444.914 365.943 445.653 366.194L458.126 370.427V404.276C458.126 405.262 458.72 406.15 459.631 406.526L518.57 430.881C518.583 430.887 518.597 430.893 518.611 430.898C518.781 430.97 519.008 431.066 519.5 431.066C520.032 431.066 520.43 430.881 520.43 430.881L579.369 406.526C580.28 406.15 580.874 405.261 580.874 404.276V370.426L593.347 366.193C594.085 365.943 594.659 365.353 594.891 364.608C595.121 363.863 594.981 363.053 594.514 362.428ZM450.396 362.66L461.516 347.801L466.013 349.04L491.325 356.012L515.261 362.607L501.223 379.91L450.396 362.66ZM517.065 424.988L462.997 402.647V372.08L501.263 385.068C501.52 385.156 501.784 385.197 502.046 385.197C502.766 385.197 503.466 384.877 503.937 384.296L517.065 368.116L517.065 424.988ZM519.5 358.723L469.626 344.983L519.5 330.9L569.373 344.983L519.5 358.723ZM576.003 402.647L521.935 424.988V368.116L535.063 384.297C535.534 384.877 536.234 385.198 536.954 385.198C537.216 385.198 537.48 385.157 537.737 385.069L576.003 372.08V402.647ZM537.777 379.91L523.739 362.607L577.484 347.801L588.604 362.66L537.777 379.91Z" stroke="#7D7CA7"/>
</g>
<path d="M562 264.386L554.347 350.429L519.949 360L485.645 350.442L478 264.386H562Z" fill="#D671DF"/>
<path d="M547.796 344.95L554.336 271.423H520V352.684L547.796 344.95Z" fill="#D671DF"/>
<path d="M495.525 303.34L496.467 313.894H520V303.34H495.525Z" fill="#EBEBEB"/>
<path d="M520 281.977H519.964H493.631L494.587 292.532H520V281.977Z" fill="#EBEBEB"/>
<path d="M520 341.731V330.75L519.954 330.763L508.242 327.589L507.494 319.171H501.803H496.937L498.411 335.743L519.952 341.745L520 341.731Z" fill="#EBEBEB"/>
<path d="M497.769 241H510.505V246.346H503.095V251.691H510.505V257.037H497.769V241Z" fill="#D671DF"/>
<path d="M513.053 241H525.789V245.648H518.379V246.578H525.789V257.27H513.053V252.389H520.463V251.459H513.053V241Z" fill="#D671DF"/>
<path d="M528.337 241H541.073V245.648H533.663V246.578H541.073V257.27H528.337V252.389H535.747V251.459H528.337V241Z" fill="#D671DF"/>
<path d="M532.913 313.894L531.692 327.582L519.964 330.759V341.74L541.522 335.743L541.68 333.96L544.151 306.174L544.408 303.34L546.306 281.977H519.964V292.532H534.782L533.825 303.34H519.964V313.894H532.913Z" fill="white"/>
<g clip-path="url(#clip3_611_26)">
<path d="M224 111.253L210.152 266.707L147.907 284L85.8329 266.732L72 111.253H224Z" fill="#7D7CA7"/>
<path d="M198.297 256.808L210.131 123.965H148V270.782L198.297 256.808Z" fill="#7D7CA7"/>
<path d="M103.712 181.63L105.417 200.699H148V181.63H103.712Z" fill="#EBEBEB"/>
<path d="M148 143.034H147.934H100.285L102.015 162.103H148V143.034Z" fill="#EBEBEB"/>
<path d="M148 250.994V231.154L147.917 231.176L126.724 225.442L125.369 210.234H115.071H106.267L108.933 240.174L147.912 251.018L148 250.994Z" fill="#EBEBEB"/>
<path d="M107.772 69H130.819V78.6582H117.41V88.3164H130.819V97.9746H107.772V69Z" fill="#7D7CA7"/>
<path d="M135.429 69H158.476V77.3984H145.067V79.0781H158.476V98.3945H135.429V89.5762H148.838V87.8965H135.429V69Z" fill="#7D7CA7"/>
<path d="M163.085 69H186.133V77.3984H172.723V79.0781H186.133V98.3945H163.085V89.5762H176.495V87.8965H163.085V69Z" fill="#7D7CA7"/>
<path d="M171.366 200.699L169.157 225.43L147.934 231.17V251.009L186.944 240.174L187.231 236.953L191.702 186.751L192.166 181.63L195.602 143.034H147.934V162.103H174.748L173.016 181.63H147.934V200.699H171.366Z" fill="white"/>
</g>
<defs>
<clipPath id="clip0_611_26">
<rect width="151" height="151" fill="white" transform="translate(246 303)"/>
</clipPath>
<clipPath id="clip1_611_26">
<rect width="151" height="151" fill="white" transform="translate(642 304)"/>
</clipPath>
<clipPath id="clip2_611_26">
<rect width="151" height="151" fill="white" transform="translate(444 303)"/>
</clipPath>
<clipPath id="clip3_611_26">
<rect width="152" height="215" fill="white" transform="translate(72 69)"/>
</clipPath>
</defs>
</svg>
