<svg width="792" height="356" viewBox="0 0 792 356" fill="none" xmlns="http://www.w3.org/2000/svg">
<rect width="150" height="150" fill="#BBBBD2"/>
<rect x="214" width="150" height="150" fill="#F7CECE"/>
<rect x="428" width="150" height="150" fill="#BCEDB4"/>
<rect x="642.5" y="0.5" width="149" height="149" fill="white" stroke="black"/>
<rect x="214" y="206" width="150" height="150" fill="#BBBBD2"/>
<rect x="428" y="206" width="150" height="150" fill="#F7CECE"/>
<path d="M215.061 76.0607C215.646 75.4749 215.646 74.5251 215.061 73.9393L205.515 64.3934C204.929 63.8076 203.979 63.8076 203.393 64.3934C202.808 64.9792 202.808 65.9289 203.393 66.5147L211.879 75L203.393 83.4853C202.808 84.0711 202.808 85.0208 203.393 85.6066C203.979 86.1924 204.929 86.1924 205.515 85.6066L215.061 76.0607ZM150 76.5H214V73.5H150V76.5Z" fill="#B34C4C"/>
<path d="M287.939 207.061C288.525 207.646 289.475 207.646 290.061 207.061L299.607 197.515C300.192 196.929 300.192 195.979 299.607 195.393C299.021 194.808 298.071 194.808 297.485 195.393L289 203.879L280.515 195.393C279.929 194.808 278.979 194.808 278.393 195.393C277.808 195.979 277.808 196.929 278.393 197.515L287.939 207.061ZM287.5 150V206H290.5V150H287.5Z" fill="#B34C4C"/>
<path d="M429.061 282.061C429.646 281.475 429.646 280.525 429.061 279.939L419.515 270.393C418.929 269.808 417.979 269.808 417.393 270.393C416.808 270.979 416.808 271.929 417.393 272.515L425.879 281L417.393 289.485C416.808 290.071 416.808 291.021 417.393 291.607C417.979 292.192 418.929 292.192 419.515 291.607L429.061 282.061ZM364 282.5H428V279.5H364V282.5Z" fill="#B34C4C"/>
<path d="M429.061 76.0607C429.646 75.4749 429.646 74.5251 429.061 73.9393L419.515 64.3934C418.929 63.8076 417.979 63.8076 417.393 64.3934C416.808 64.9792 416.808 65.9289 417.393 66.5147L425.879 75L417.393 83.4853C416.808 84.0711 416.808 85.0208 417.393 85.6066C417.979 86.1924 418.929 86.1924 419.515 85.6066L429.061 76.0607ZM364 76.5H428V73.5H364V76.5Z" fill="#B34C4C"/>
<path d="M504.061 148.939C503.475 148.354 502.525 148.354 501.939 148.939L492.393 158.485C491.808 159.071 491.808 160.021 492.393 160.607C492.979 161.192 493.929 161.192 494.515 160.607L503 152.121L511.485 160.607C512.071 161.192 513.021 161.192 513.607 160.607C514.192 160.021 514.192 159.071 513.607 158.485L504.061 148.939ZM504.5 206V150H501.5V206H504.5Z" fill="#B34C4C"/>
<path d="M643.061 76.0607C643.646 75.4749 643.646 74.5251 643.061 73.9393L633.515 64.3934C632.929 63.8076 631.979 63.8076 631.393 64.3934C630.808 64.9792 630.808 65.9289 631.393 66.5147L639.879 75L631.393 83.4853C630.808 84.0711 630.808 85.0208 631.393 85.6066C631.979 86.1924 632.929 86.1924 633.515 85.6066L643.061 76.0607ZM578 76.5H642V73.5H578V76.5Z" fill="#B34C4C"/>
<path d="M50.9238 64.1543V66H37.6523V64.1543H50.9238ZM38.2852 40.4062V66H36.123V40.4062H38.2852ZM53.4551 56.7891V56.209C53.4551 54.8262 53.6543 53.5488 54.0527 52.377C54.4512 51.2051 55.0195 50.1914 55.7578 49.3359C56.5078 48.4805 57.4043 47.8184 58.4473 47.3496C59.4902 46.8691 60.6504 46.6289 61.9277 46.6289C63.2168 46.6289 64.3828 46.8691 65.4258 47.3496C66.4688 47.8184 67.3652 48.4805 68.1152 49.3359C68.8652 50.1914 69.4395 51.2051 69.8379 52.377C70.2363 53.5488 70.4355 54.8262 70.4355 56.209V56.7891C70.4355 58.1719 70.2363 59.4492 69.8379 60.6211C69.4395 61.7812 68.8652 62.7891 68.1152 63.6445C67.377 64.5 66.4863 65.168 65.4434 65.6484C64.4004 66.1172 63.2402 66.3516 61.9629 66.3516C60.6738 66.3516 59.5078 66.1172 58.4648 65.6484C57.4219 65.168 56.5254 64.5 55.7754 63.6445C55.0254 62.7891 54.4512 61.7812 54.0527 60.6211C53.6543 59.4492 53.4551 58.1719 53.4551 56.7891ZM55.5469 56.209V56.7891C55.5469 57.832 55.6875 58.8223 55.9688 59.7598C56.25 60.6855 56.6602 61.5117 57.1992 62.2383C57.7383 62.9531 58.4062 63.5156 59.2031 63.9258C60 64.3359 60.9199 64.541 61.9629 64.541C62.9941 64.541 63.9023 64.3359 64.6875 63.9258C65.4844 63.5156 66.1523 62.9531 66.6914 62.2383C67.2305 61.5117 67.6348 60.6855 67.9043 59.7598C68.1855 58.8223 68.3262 57.832 68.3262 56.7891V56.209C68.3262 55.1777 68.1855 54.1992 67.9043 53.2734C67.6348 52.3477 67.2246 51.5215 66.6738 50.7949C66.1348 50.0684 65.4668 49.4941 64.6699 49.0723C63.873 48.6504 62.959 48.4395 61.9277 48.4395C60.8965 48.4395 59.9824 48.6504 59.1855 49.0723C58.4004 49.4941 57.7324 50.0684 57.1816 50.7949C56.6426 51.5215 56.2324 52.3477 55.9512 53.2734C55.6816 54.1992 55.5469 55.1777 55.5469 56.209ZM86.3613 62.5898V52.7812C86.3613 51.8789 86.1738 51.0996 85.7988 50.4434C85.4238 49.7871 84.873 49.2832 84.1465 48.9316C83.4199 48.5801 82.5234 48.4043 81.457 48.4043C80.4727 48.4043 79.5938 48.5801 78.8203 48.9316C78.0586 49.2715 77.4551 49.7344 77.0098 50.3203C76.5762 50.8945 76.3594 51.5332 76.3594 52.2363L74.25 52.2188C74.25 51.5039 74.4258 50.8125 74.7773 50.1445C75.1289 49.4766 75.627 48.8789 76.2715 48.3516C76.916 47.8242 77.6836 47.4082 78.5742 47.1035C79.4766 46.7871 80.4668 46.6289 81.5449 46.6289C82.9043 46.6289 84.0996 46.8574 85.1309 47.3145C86.1738 47.7715 86.9883 48.457 87.5742 49.3711C88.1602 50.2852 88.4531 51.4336 88.4531 52.8164V62.0098C88.4531 62.666 88.5 63.3457 88.5938 64.0488C88.6992 64.752 88.8457 65.332 89.0332 65.7891V66H86.8008C86.6602 65.5781 86.5488 65.0508 86.4668 64.418C86.3965 63.7734 86.3613 63.1641 86.3613 62.5898ZM86.8535 54.9258L86.8887 56.543H82.7578C81.6797 56.543 80.7129 56.6426 79.8574 56.8418C79.0137 57.0293 78.2988 57.3105 77.7129 57.6855C77.127 58.0488 76.6758 58.4883 76.3594 59.0039C76.0547 59.5195 75.9023 60.1055 75.9023 60.7617C75.9023 61.4414 76.0723 62.0625 76.4121 62.625C76.7637 63.1875 77.2559 63.6387 77.8887 63.9785C78.5332 64.3066 79.2949 64.4707 80.1738 64.4707C81.3457 64.4707 82.377 64.2539 83.2676 63.8203C84.1699 63.3867 84.9141 62.8184 85.5 62.1152C86.0859 61.4121 86.4785 60.6445 86.6777 59.8125L87.5918 61.0254C87.4395 61.6113 87.1582 62.2148 86.748 62.8359C86.3496 63.4453 85.8281 64.0195 85.1836 64.5586C84.5391 65.0859 83.7773 65.5195 82.8984 65.8594C82.0312 66.1875 81.0469 66.3516 79.9453 66.3516C78.7031 66.3516 77.6191 66.1172 76.6934 65.6484C75.7793 65.1797 75.0645 64.541 74.5488 63.7324C74.0449 62.9121 73.793 61.9863 73.793 60.9551C73.793 60.0176 73.9922 59.1797 74.3906 58.4414C74.7891 57.6914 75.3633 57.0586 76.1133 56.543C76.875 56.0156 77.7891 55.6172 78.8555 55.3477C79.9336 55.0664 81.1406 54.9258 82.4766 54.9258H86.8535ZM106.453 62.3086V39H108.562V66H106.594L106.453 62.3086ZM93.252 56.6836V56.3145C93.252 54.8379 93.4219 53.5078 93.7617 52.3242C94.1016 51.1289 94.5879 50.1094 95.2207 49.2656C95.8652 48.4102 96.6387 47.7598 97.541 47.3145C98.4434 46.8574 99.4629 46.6289 100.6 46.6289C101.713 46.6289 102.697 46.8105 103.553 47.1738C104.408 47.5371 105.141 48.0586 105.75 48.7383C106.371 49.418 106.869 50.2266 107.244 51.1641C107.631 52.1016 107.912 53.1445 108.088 54.293V58.9863C107.947 60.0645 107.689 61.0547 107.314 61.957C106.939 62.8477 106.441 63.627 105.82 64.2949C105.199 64.9512 104.449 65.4609 103.57 65.8242C102.703 66.1758 101.701 66.3516 100.564 66.3516C99.4395 66.3516 98.4258 66.1172 97.5234 65.6484C96.6211 65.1797 95.8535 64.5176 95.2207 63.6621C94.5879 62.7949 94.1016 61.7695 93.7617 60.5859C93.4219 59.4023 93.252 58.1016 93.252 56.6836ZM95.3613 56.3145V56.6836C95.3613 57.7969 95.4727 58.8281 95.6953 59.7773C95.918 60.7266 96.2578 61.5527 96.7148 62.2559C97.1719 62.959 97.752 63.5098 98.4551 63.9082C99.1582 64.3066 99.9902 64.5059 100.951 64.5059C102.158 64.5059 103.172 64.2773 103.992 63.8203C104.812 63.3516 105.469 62.7363 105.961 61.9746C106.453 61.2012 106.811 60.3574 107.033 59.4434V53.9766C106.893 53.3555 106.688 52.7227 106.418 52.0781C106.148 51.4336 105.779 50.8418 105.311 50.3027C104.854 49.752 104.268 49.3125 103.553 48.9844C102.85 48.6445 101.994 48.4746 100.986 48.4746C100.014 48.4746 99.1758 48.6738 98.4727 49.0723C97.7695 49.4707 97.1836 50.0273 96.7148 50.7422C96.2578 51.4453 95.918 52.2715 95.6953 53.2207C95.4727 54.1699 95.3613 55.2012 95.3613 56.3145ZM48.6562 93.8848V95.7305H33.0996V93.8848H48.6562ZM33.6094 82.4062V108H31.4473V82.4062H33.6094ZM50.3965 82.4062V108H48.2344V82.4062H50.3965ZM64.9863 82.4062V108H62.8418V82.4062H64.9863ZM73.7578 82.4062V84.2695H54.0879V82.4062H73.7578ZM78.5918 82.4062H80.7715L90.2285 104.941L99.7031 82.4062H101.865L91.0547 108H89.4023L78.5918 82.4062ZM77.9238 82.4062H79.8398L80.0684 96.8203V108H77.9238V82.4062ZM100.652 82.4062H102.568V108H100.406V96.8203L100.652 82.4062ZM123.873 106.154V108H110.602V106.154H123.873ZM111.234 82.4062V108H109.072V82.4062H111.234Z" fill="black"/>
<path d="M263.424 270.154V272H250.152V270.154H263.424ZM250.785 246.406V272H248.623V246.406H250.785ZM265.955 262.789V262.209C265.955 260.826 266.154 259.549 266.553 258.377C266.951 257.205 267.52 256.191 268.258 255.336C269.008 254.48 269.904 253.818 270.947 253.35C271.99 252.869 273.15 252.629 274.428 252.629C275.717 252.629 276.883 252.869 277.926 253.35C278.969 253.818 279.865 254.48 280.615 255.336C281.365 256.191 281.939 257.205 282.338 258.377C282.736 259.549 282.936 260.826 282.936 262.209V262.789C282.936 264.172 282.736 265.449 282.338 266.621C281.939 267.781 281.365 268.789 280.615 269.645C279.877 270.5 278.986 271.168 277.943 271.648C276.9 272.117 275.74 272.352 274.463 272.352C273.174 272.352 272.008 272.117 270.965 271.648C269.922 271.168 269.025 270.5 268.275 269.645C267.525 268.789 266.951 267.781 266.553 266.621C266.154 265.449 265.955 264.172 265.955 262.789ZM268.047 262.209V262.789C268.047 263.832 268.188 264.822 268.469 265.76C268.75 266.686 269.16 267.512 269.699 268.238C270.238 268.953 270.906 269.516 271.703 269.926C272.5 270.336 273.42 270.541 274.463 270.541C275.494 270.541 276.402 270.336 277.188 269.926C277.984 269.516 278.652 268.953 279.191 268.238C279.73 267.512 280.135 266.686 280.404 265.76C280.686 264.822 280.826 263.832 280.826 262.789V262.209C280.826 261.178 280.686 260.199 280.404 259.273C280.135 258.348 279.725 257.521 279.174 256.795C278.635 256.068 277.967 255.494 277.17 255.072C276.373 254.65 275.459 254.439 274.428 254.439C273.396 254.439 272.482 254.65 271.686 255.072C270.9 255.494 270.232 256.068 269.682 256.795C269.143 257.521 268.732 258.348 268.451 259.273C268.182 260.199 268.047 261.178 268.047 262.209ZM298.861 268.59V258.781C298.861 257.879 298.674 257.1 298.299 256.443C297.924 255.787 297.373 255.283 296.646 254.932C295.92 254.58 295.023 254.404 293.957 254.404C292.973 254.404 292.094 254.58 291.32 254.932C290.559 255.271 289.955 255.734 289.51 256.32C289.076 256.895 288.859 257.533 288.859 258.236L286.75 258.219C286.75 257.504 286.926 256.812 287.277 256.145C287.629 255.477 288.127 254.879 288.771 254.352C289.416 253.824 290.184 253.408 291.074 253.104C291.977 252.787 292.967 252.629 294.045 252.629C295.404 252.629 296.6 252.857 297.631 253.314C298.674 253.771 299.488 254.457 300.074 255.371C300.66 256.285 300.953 257.434 300.953 258.816V268.01C300.953 268.666 301 269.346 301.094 270.049C301.199 270.752 301.346 271.332 301.533 271.789V272H299.301C299.16 271.578 299.049 271.051 298.967 270.418C298.896 269.773 298.861 269.164 298.861 268.59ZM299.354 260.926L299.389 262.543H295.258C294.18 262.543 293.213 262.643 292.357 262.842C291.514 263.029 290.799 263.311 290.213 263.686C289.627 264.049 289.176 264.488 288.859 265.004C288.555 265.52 288.402 266.105 288.402 266.762C288.402 267.441 288.572 268.062 288.912 268.625C289.264 269.188 289.756 269.639 290.389 269.979C291.033 270.307 291.795 270.471 292.674 270.471C293.846 270.471 294.877 270.254 295.768 269.82C296.67 269.387 297.414 268.818 298 268.115C298.586 267.412 298.979 266.645 299.178 265.812L300.092 267.025C299.939 267.611 299.658 268.215 299.248 268.836C298.85 269.445 298.328 270.02 297.684 270.559C297.039 271.086 296.277 271.52 295.398 271.859C294.531 272.188 293.547 272.352 292.445 272.352C291.203 272.352 290.119 272.117 289.193 271.648C288.279 271.18 287.564 270.541 287.049 269.732C286.545 268.912 286.293 267.986 286.293 266.955C286.293 266.018 286.492 265.18 286.891 264.441C287.289 263.691 287.863 263.059 288.613 262.543C289.375 262.016 290.289 261.617 291.355 261.348C292.434 261.066 293.641 260.926 294.977 260.926H299.354ZM318.953 268.309V245H321.062V272H319.094L318.953 268.309ZM305.752 262.684V262.314C305.752 260.838 305.922 259.508 306.262 258.324C306.602 257.129 307.088 256.109 307.721 255.266C308.365 254.41 309.139 253.76 310.041 253.314C310.943 252.857 311.963 252.629 313.1 252.629C314.213 252.629 315.197 252.811 316.053 253.174C316.908 253.537 317.641 254.059 318.25 254.738C318.871 255.418 319.369 256.227 319.744 257.164C320.131 258.102 320.412 259.145 320.588 260.293V264.986C320.447 266.064 320.189 267.055 319.814 267.957C319.439 268.848 318.941 269.627 318.32 270.295C317.699 270.951 316.949 271.461 316.07 271.824C315.203 272.176 314.201 272.352 313.064 272.352C311.939 272.352 310.926 272.117 310.023 271.648C309.121 271.18 308.354 270.518 307.721 269.662C307.088 268.795 306.602 267.77 306.262 266.586C305.922 265.402 305.752 264.102 305.752 262.684ZM307.861 262.314V262.684C307.861 263.797 307.973 264.828 308.195 265.777C308.418 266.727 308.758 267.553 309.215 268.256C309.672 268.959 310.252 269.51 310.955 269.908C311.658 270.307 312.49 270.506 313.451 270.506C314.658 270.506 315.672 270.277 316.492 269.82C317.312 269.352 317.969 268.736 318.461 267.975C318.953 267.201 319.311 266.357 319.533 265.443V259.977C319.393 259.355 319.188 258.723 318.918 258.078C318.648 257.434 318.279 256.842 317.811 256.303C317.354 255.752 316.768 255.312 316.053 254.984C315.35 254.645 314.494 254.475 313.486 254.475C312.514 254.475 311.676 254.674 310.973 255.072C310.27 255.471 309.684 256.027 309.215 256.742C308.758 257.445 308.418 258.271 308.195 259.221C307.973 260.17 307.861 261.201 307.861 262.314ZM275.166 306.02H277.328C277.152 307.742 276.678 309.23 275.904 310.484C275.131 311.727 274.076 312.682 272.74 313.35C271.404 314.018 269.793 314.352 267.906 314.352C266.453 314.352 265.135 314.076 263.951 313.525C262.779 312.975 261.771 312.195 260.928 311.188C260.084 310.168 259.434 308.949 258.977 307.531C258.52 306.113 258.291 304.537 258.291 302.803V299.604C258.291 297.869 258.52 296.299 258.977 294.893C259.434 293.475 260.09 292.256 260.945 291.236C261.801 290.217 262.826 289.432 264.021 288.881C265.217 288.33 266.564 288.055 268.064 288.055C269.881 288.055 271.451 288.389 272.775 289.057C274.1 289.713 275.143 290.662 275.904 291.904C276.678 293.146 277.152 294.646 277.328 296.404H275.166C275.002 295.021 274.639 293.85 274.076 292.889C273.514 291.928 272.734 291.195 271.738 290.691C270.754 290.176 269.529 289.918 268.064 289.918C266.869 289.918 265.803 290.146 264.865 290.604C263.928 291.061 263.131 291.717 262.475 292.572C261.818 293.416 261.314 294.43 260.963 295.613C260.623 296.797 260.453 298.115 260.453 299.568V302.803C260.453 304.209 260.617 305.504 260.945 306.688C261.273 307.871 261.754 308.896 262.387 309.764C263.031 310.631 263.816 311.305 264.742 311.785C265.668 312.266 266.723 312.506 267.906 312.506C269.418 312.506 270.678 312.266 271.686 311.785C272.705 311.293 273.496 310.566 274.059 309.605C274.621 308.645 274.99 307.449 275.166 306.02ZM297.086 307.707C297.086 307.004 296.969 306.377 296.734 305.826C296.5 305.275 296.113 304.783 295.574 304.35C295.047 303.904 294.332 303.494 293.43 303.119C292.539 302.732 291.426 302.352 290.09 301.977C288.812 301.613 287.658 301.215 286.627 300.781C285.596 300.348 284.711 299.85 283.973 299.287C283.246 298.725 282.689 298.068 282.303 297.318C281.916 296.557 281.723 295.672 281.723 294.664C281.723 293.68 281.934 292.783 282.355 291.975C282.777 291.166 283.369 290.469 284.131 289.883C284.904 289.297 285.812 288.846 286.855 288.529C287.91 288.213 289.064 288.055 290.318 288.055C292.111 288.055 293.658 288.395 294.959 289.074C296.271 289.754 297.285 290.674 298 291.834C298.727 292.982 299.09 294.271 299.09 295.701H296.928C296.928 294.588 296.664 293.598 296.137 292.73C295.621 291.852 294.871 291.166 293.887 290.674C292.914 290.17 291.725 289.918 290.318 289.918C288.912 289.918 287.729 290.135 286.768 290.568C285.818 290.99 285.098 291.559 284.605 292.273C284.125 292.977 283.885 293.762 283.885 294.629C283.885 295.238 284.002 295.801 284.236 296.316C284.471 296.82 284.852 297.295 285.379 297.74C285.918 298.174 286.627 298.584 287.506 298.971C288.385 299.346 289.469 299.703 290.758 300.043C292.117 300.418 293.324 300.834 294.379 301.291C295.434 301.748 296.324 302.275 297.051 302.873C297.777 303.459 298.328 304.145 298.703 304.93C299.078 305.715 299.266 306.629 299.266 307.672C299.266 308.715 299.043 309.652 298.598 310.484C298.164 311.305 297.549 312.002 296.752 312.576C295.967 313.15 295.035 313.59 293.957 313.895C292.891 314.199 291.725 314.352 290.459 314.352C289.322 314.352 288.191 314.205 287.066 313.912C285.941 313.619 284.91 313.168 283.973 312.559C283.047 311.938 282.303 311.141 281.74 310.168C281.189 309.195 280.914 308.035 280.914 306.688H283.059C283.059 307.766 283.275 308.674 283.709 309.412C284.143 310.15 284.717 310.748 285.432 311.205C286.158 311.662 286.955 311.996 287.822 312.207C288.701 312.406 289.58 312.506 290.459 312.506C291.807 312.506 292.973 312.307 293.957 311.908C294.953 311.51 295.721 310.953 296.26 310.238C296.811 309.512 297.086 308.668 297.086 307.707ZM318.426 307.707C318.426 307.004 318.309 306.377 318.074 305.826C317.84 305.275 317.453 304.783 316.914 304.35C316.387 303.904 315.672 303.494 314.77 303.119C313.879 302.732 312.766 302.352 311.43 301.977C310.152 301.613 308.998 301.215 307.967 300.781C306.936 300.348 306.051 299.85 305.312 299.287C304.586 298.725 304.029 298.068 303.643 297.318C303.256 296.557 303.062 295.672 303.062 294.664C303.062 293.68 303.273 292.783 303.695 291.975C304.117 291.166 304.709 290.469 305.471 289.883C306.244 289.297 307.152 288.846 308.195 288.529C309.25 288.213 310.404 288.055 311.658 288.055C313.451 288.055 314.998 288.395 316.299 289.074C317.611 289.754 318.625 290.674 319.34 291.834C320.066 292.982 320.43 294.271 320.43 295.701H318.268C318.268 294.588 318.004 293.598 317.477 292.73C316.961 291.852 316.211 291.166 315.227 290.674C314.254 290.17 313.064 289.918 311.658 289.918C310.252 289.918 309.068 290.135 308.107 290.568C307.158 290.99 306.438 291.559 305.945 292.273C305.465 292.977 305.225 293.762 305.225 294.629C305.225 295.238 305.342 295.801 305.576 296.316C305.811 296.82 306.191 297.295 306.719 297.74C307.258 298.174 307.967 298.584 308.846 298.971C309.725 299.346 310.809 299.703 312.098 300.043C313.457 300.418 314.664 300.834 315.719 301.291C316.773 301.748 317.664 302.275 318.391 302.873C319.117 303.459 319.668 304.145 320.043 304.93C320.418 305.715 320.605 306.629 320.605 307.672C320.605 308.715 320.383 309.652 319.938 310.484C319.504 311.305 318.889 312.002 318.092 312.576C317.307 313.15 316.375 313.59 315.297 313.895C314.23 314.199 313.064 314.352 311.799 314.352C310.662 314.352 309.531 314.205 308.406 313.912C307.281 313.619 306.25 313.168 305.312 312.559C304.387 311.938 303.643 311.141 303.08 310.168C302.529 309.195 302.254 308.035 302.254 306.688H304.398C304.398 307.766 304.615 308.674 305.049 309.412C305.482 310.15 306.057 310.748 306.771 311.205C307.498 311.662 308.295 311.996 309.162 312.207C310.041 312.406 310.92 312.506 311.799 312.506C313.146 312.506 314.312 312.307 315.297 311.908C316.293 311.51 317.061 310.953 317.6 310.238C318.15 309.512 318.426 308.668 318.426 307.707Z" fill="black"/>
<path d="M257.312 55.5762H250.018V53.7305H257.312C258.836 53.7305 260.072 53.4844 261.021 52.9922C261.982 52.4883 262.68 51.8086 263.113 50.9531C263.559 50.0977 263.781 49.1367 263.781 48.0703C263.781 47.0273 263.559 46.0664 263.113 45.1875C262.68 44.3086 261.982 43.6055 261.021 43.0781C260.072 42.5391 258.836 42.2695 257.312 42.2695H250.773V66H248.611V40.4062H257.312C259.188 40.4062 260.764 40.7285 262.041 41.373C263.33 42.0176 264.303 42.9141 264.959 44.0625C265.615 45.2109 265.943 46.5352 265.943 48.0352C265.943 49.6055 265.615 50.959 264.959 52.0957C264.303 53.2207 263.336 54.082 262.059 54.6797C260.781 55.2773 259.199 55.5762 257.312 55.5762ZM281.658 62.5898V52.7812C281.658 51.8789 281.471 51.0996 281.096 50.4434C280.721 49.7871 280.17 49.2832 279.443 48.9316C278.717 48.5801 277.82 48.4043 276.754 48.4043C275.77 48.4043 274.891 48.5801 274.117 48.9316C273.355 49.2715 272.752 49.7344 272.307 50.3203C271.873 50.8945 271.656 51.5332 271.656 52.2363L269.547 52.2188C269.547 51.5039 269.723 50.8125 270.074 50.1445C270.426 49.4766 270.924 48.8789 271.568 48.3516C272.213 47.8242 272.98 47.4082 273.871 47.1035C274.773 46.7871 275.764 46.6289 276.842 46.6289C278.201 46.6289 279.396 46.8574 280.428 47.3145C281.471 47.7715 282.285 48.457 282.871 49.3711C283.457 50.2852 283.75 51.4336 283.75 52.8164V62.0098C283.75 62.666 283.797 63.3457 283.891 64.0488C283.996 64.752 284.143 65.332 284.33 65.7891V66H282.098C281.957 65.5781 281.846 65.0508 281.764 64.418C281.693 63.7734 281.658 63.1641 281.658 62.5898ZM282.15 54.9258L282.186 56.543H278.055C276.977 56.543 276.01 56.6426 275.154 56.8418C274.311 57.0293 273.596 57.3105 273.01 57.6855C272.424 58.0488 271.973 58.4883 271.656 59.0039C271.352 59.5195 271.199 60.1055 271.199 60.7617C271.199 61.4414 271.369 62.0625 271.709 62.625C272.061 63.1875 272.553 63.6387 273.186 63.9785C273.83 64.3066 274.592 64.4707 275.471 64.4707C276.643 64.4707 277.674 64.2539 278.564 63.8203C279.467 63.3867 280.211 62.8184 280.797 62.1152C281.383 61.4121 281.775 60.6445 281.975 59.8125L282.889 61.0254C282.736 61.6113 282.455 62.2148 282.045 62.8359C281.646 63.4453 281.125 64.0195 280.48 64.5586C279.836 65.0859 279.074 65.5195 278.195 65.8594C277.328 66.1875 276.344 66.3516 275.242 66.3516C274 66.3516 272.916 66.1172 271.99 65.6484C271.076 65.1797 270.361 64.541 269.846 63.7324C269.342 62.9121 269.09 61.9863 269.09 60.9551C269.09 60.0176 269.289 59.1797 269.688 58.4414C270.086 57.6914 270.66 57.0586 271.41 56.543C272.172 56.0156 273.086 55.6172 274.152 55.3477C275.23 55.0664 276.438 54.9258 277.773 54.9258H282.15ZM291.484 50.127V66H289.393V46.9805H291.432L291.484 50.127ZM298.217 46.8398L298.164 48.7734C297.93 48.7383 297.701 48.709 297.479 48.6855C297.256 48.6621 297.016 48.6504 296.758 48.6504C295.844 48.6504 295.041 48.8203 294.35 49.1602C293.67 49.4883 293.096 49.9512 292.627 50.5488C292.158 51.1348 291.801 51.8262 291.555 52.623C291.309 53.4082 291.168 54.252 291.133 55.1543L290.359 55.4531C290.359 54.2109 290.488 53.0566 290.746 51.9902C291.004 50.9238 291.396 49.9922 291.924 49.1953C292.463 48.3867 293.137 47.7598 293.945 47.3145C294.766 46.8574 295.727 46.6289 296.828 46.6289C297.098 46.6289 297.361 46.6523 297.619 46.6992C297.889 46.7344 298.088 46.7812 298.217 46.8398ZM312.912 61.1484C312.912 60.6328 312.783 60.123 312.525 59.6191C312.268 59.1152 311.77 58.6523 311.031 58.2305C310.305 57.8086 309.232 57.4512 307.814 57.1582C306.76 56.9238 305.816 56.6602 304.984 56.3672C304.164 56.0742 303.473 55.7227 302.91 55.3125C302.348 54.9023 301.92 54.4102 301.627 53.8359C301.334 53.2617 301.188 52.582 301.188 51.7969C301.188 51.0938 301.34 50.4316 301.645 49.8105C301.961 49.1777 302.406 48.627 302.98 48.1582C303.566 47.6777 304.27 47.3027 305.09 47.0332C305.922 46.7637 306.854 46.6289 307.885 46.6289C309.35 46.6289 310.604 46.8809 311.646 47.3848C312.701 47.877 313.504 48.5508 314.055 49.4062C314.617 50.2617 314.898 51.2285 314.898 52.3066H312.807C312.807 51.6504 312.613 51.0293 312.227 50.4434C311.852 49.8574 311.295 49.377 310.557 49.002C309.83 48.627 308.939 48.4395 307.885 48.4395C306.795 48.4395 305.91 48.6035 305.23 48.9316C304.551 49.2598 304.053 49.6758 303.736 50.1797C303.432 50.6836 303.279 51.2051 303.279 51.7441C303.279 52.166 303.344 52.5527 303.473 52.9043C303.613 53.2441 303.859 53.5605 304.211 53.8535C304.574 54.1465 305.09 54.4219 305.758 54.6797C306.426 54.9375 307.293 55.1895 308.359 55.4355C309.895 55.7754 311.148 56.1914 312.121 56.6836C313.105 57.1641 313.832 57.7617 314.301 58.4766C314.77 59.1797 315.004 60.0352 315.004 61.043C315.004 61.8281 314.84 62.5488 314.512 63.2051C314.184 63.8496 313.709 64.4062 313.088 64.875C312.479 65.3438 311.74 65.707 310.873 65.9648C310.018 66.2227 309.057 66.3516 307.99 66.3516C306.385 66.3516 305.025 66.0879 303.912 65.5605C302.811 65.0215 301.973 64.3184 301.398 63.4512C300.836 62.5723 300.555 61.6406 300.555 60.6562H302.646C302.717 61.6406 303.027 62.4199 303.578 62.9941C304.129 63.5566 304.803 63.9551 305.6 64.1895C306.408 64.4238 307.205 64.541 307.99 64.541C309.068 64.541 309.971 64.3828 310.697 64.0664C311.424 63.75 311.975 63.334 312.35 62.8184C312.725 62.3027 312.912 61.7461 312.912 61.1484ZM327.115 66.3516C325.873 66.3516 324.73 66.123 323.688 65.666C322.656 65.209 321.754 64.5645 320.98 63.7324C320.219 62.9004 319.627 61.916 319.205 60.7793C318.795 59.6309 318.59 58.377 318.59 57.0176V56.2617C318.59 54.7969 318.807 53.4727 319.24 52.2891C319.674 51.1055 320.271 50.0918 321.033 49.248C321.795 48.4043 322.662 47.7598 323.635 47.3145C324.619 46.8574 325.65 46.6289 326.729 46.6289C327.936 46.6289 329.008 46.8457 329.945 47.2793C330.883 47.7012 331.668 48.3047 332.301 49.0898C332.945 49.8633 333.432 50.7832 333.76 51.8496C334.088 52.9043 334.252 54.0703 334.252 55.3477V56.6309H319.855V54.8379H332.16V54.5918C332.137 53.5254 331.92 52.5293 331.51 51.6035C331.111 50.666 330.514 49.9043 329.717 49.3184C328.92 48.7324 327.924 48.4395 326.729 48.4395C325.838 48.4395 325.018 48.627 324.268 49.002C323.529 49.377 322.891 49.916 322.352 50.6191C321.824 51.3105 321.414 52.1367 321.121 53.0977C320.84 54.0469 320.699 55.1016 320.699 56.2617V57.0176C320.699 58.0723 320.852 59.0566 321.156 59.9707C321.473 60.873 321.918 61.6699 322.492 62.3613C323.078 63.0527 323.77 63.5918 324.566 63.9785C325.363 64.3652 326.242 64.5586 327.203 64.5586C328.328 64.5586 329.324 64.3535 330.191 63.9434C331.059 63.5215 331.838 62.8594 332.529 61.957L333.848 62.9766C333.438 63.5859 332.922 64.1484 332.301 64.6641C331.691 65.1797 330.959 65.5898 330.104 65.8945C329.248 66.1992 328.252 66.3516 327.115 66.3516ZM262.656 93.8848V95.7305H247.1V93.8848H262.656ZM247.609 82.4062V108H245.447V82.4062H247.609ZM264.396 82.4062V108H262.234V82.4062H264.396ZM278.986 82.4062V108H276.842V82.4062H278.986ZM287.758 82.4062V84.2695H268.088V82.4062H287.758ZM292.592 82.4062H294.771L304.229 104.941L313.703 82.4062H315.865L305.055 108H303.402L292.592 82.4062ZM291.924 82.4062H293.84L294.068 96.8203V108H291.924V82.4062ZM314.652 82.4062H316.568V108H314.406V96.8203L314.652 82.4062ZM337.873 106.154V108H324.602V106.154H337.873ZM325.234 82.4062V108H323.072V82.4062H325.234Z" fill="black"/>
<path d="M470.312 261.576H463.018V259.73H470.312C471.836 259.73 473.072 259.484 474.021 258.992C474.982 258.488 475.68 257.809 476.113 256.953C476.559 256.098 476.781 255.137 476.781 254.07C476.781 253.027 476.559 252.066 476.113 251.188C475.68 250.309 474.982 249.605 474.021 249.078C473.072 248.539 471.836 248.27 470.312 248.27H463.773V272H461.611V246.406H470.312C472.188 246.406 473.764 246.729 475.041 247.373C476.33 248.018 477.303 248.914 477.959 250.062C478.615 251.211 478.943 252.535 478.943 254.035C478.943 255.605 478.615 256.959 477.959 258.096C477.303 259.221 476.336 260.082 475.059 260.68C473.781 261.277 472.199 261.576 470.312 261.576ZM494.658 268.59V258.781C494.658 257.879 494.471 257.1 494.096 256.443C493.721 255.787 493.17 255.283 492.443 254.932C491.717 254.58 490.82 254.404 489.754 254.404C488.77 254.404 487.891 254.58 487.117 254.932C486.355 255.271 485.752 255.734 485.307 256.32C484.873 256.895 484.656 257.533 484.656 258.236L482.547 258.219C482.547 257.504 482.723 256.812 483.074 256.145C483.426 255.477 483.924 254.879 484.568 254.352C485.213 253.824 485.98 253.408 486.871 253.104C487.773 252.787 488.764 252.629 489.842 252.629C491.201 252.629 492.396 252.857 493.428 253.314C494.471 253.771 495.285 254.457 495.871 255.371C496.457 256.285 496.75 257.434 496.75 258.816V268.01C496.75 268.666 496.797 269.346 496.891 270.049C496.996 270.752 497.143 271.332 497.33 271.789V272H495.098C494.957 271.578 494.846 271.051 494.764 270.418C494.693 269.773 494.658 269.164 494.658 268.59ZM495.15 260.926L495.186 262.543H491.055C489.977 262.543 489.01 262.643 488.154 262.842C487.311 263.029 486.596 263.311 486.01 263.686C485.424 264.049 484.973 264.488 484.656 265.004C484.352 265.52 484.199 266.105 484.199 266.762C484.199 267.441 484.369 268.062 484.709 268.625C485.061 269.188 485.553 269.639 486.186 269.979C486.83 270.307 487.592 270.471 488.471 270.471C489.643 270.471 490.674 270.254 491.564 269.82C492.467 269.387 493.211 268.818 493.797 268.115C494.383 267.412 494.775 266.645 494.975 265.812L495.889 267.025C495.736 267.611 495.455 268.215 495.045 268.836C494.646 269.445 494.125 270.02 493.48 270.559C492.836 271.086 492.074 271.52 491.195 271.859C490.328 272.188 489.344 272.352 488.242 272.352C487 272.352 485.916 272.117 484.99 271.648C484.076 271.18 483.361 270.541 482.846 269.732C482.342 268.912 482.09 267.986 482.09 266.955C482.09 266.018 482.289 265.18 482.688 264.441C483.086 263.691 483.66 263.059 484.41 262.543C485.172 262.016 486.086 261.617 487.152 261.348C488.23 261.066 489.438 260.926 490.773 260.926H495.15ZM504.484 256.127V272H502.393V252.98H504.432L504.484 256.127ZM511.217 252.84L511.164 254.773C510.93 254.738 510.701 254.709 510.479 254.686C510.256 254.662 510.016 254.65 509.758 254.65C508.844 254.65 508.041 254.82 507.35 255.16C506.67 255.488 506.096 255.951 505.627 256.549C505.158 257.135 504.801 257.826 504.555 258.623C504.309 259.408 504.168 260.252 504.133 261.154L503.359 261.453C503.359 260.211 503.488 259.057 503.746 257.99C504.004 256.924 504.396 255.992 504.924 255.195C505.463 254.387 506.137 253.76 506.945 253.314C507.766 252.857 508.727 252.629 509.828 252.629C510.098 252.629 510.361 252.652 510.619 252.699C510.889 252.734 511.088 252.781 511.217 252.84ZM525.912 267.148C525.912 266.633 525.783 266.123 525.525 265.619C525.268 265.115 524.77 264.652 524.031 264.23C523.305 263.809 522.232 263.451 520.814 263.158C519.76 262.924 518.816 262.66 517.984 262.367C517.164 262.074 516.473 261.723 515.91 261.312C515.348 260.902 514.92 260.41 514.627 259.836C514.334 259.262 514.188 258.582 514.188 257.797C514.188 257.094 514.34 256.432 514.645 255.811C514.961 255.178 515.406 254.627 515.98 254.158C516.566 253.678 517.27 253.303 518.09 253.033C518.922 252.764 519.854 252.629 520.885 252.629C522.35 252.629 523.604 252.881 524.646 253.385C525.701 253.877 526.504 254.551 527.055 255.406C527.617 256.262 527.898 257.229 527.898 258.307H525.807C525.807 257.65 525.613 257.029 525.227 256.443C524.852 255.857 524.295 255.377 523.557 255.002C522.83 254.627 521.939 254.439 520.885 254.439C519.795 254.439 518.91 254.604 518.23 254.932C517.551 255.26 517.053 255.676 516.736 256.18C516.432 256.684 516.279 257.205 516.279 257.744C516.279 258.166 516.344 258.553 516.473 258.904C516.613 259.244 516.859 259.561 517.211 259.854C517.574 260.146 518.09 260.422 518.758 260.68C519.426 260.938 520.293 261.189 521.359 261.436C522.895 261.775 524.148 262.191 525.121 262.684C526.105 263.164 526.832 263.762 527.301 264.477C527.77 265.18 528.004 266.035 528.004 267.043C528.004 267.828 527.84 268.549 527.512 269.205C527.184 269.85 526.709 270.406 526.088 270.875C525.479 271.344 524.74 271.707 523.873 271.965C523.018 272.223 522.057 272.352 520.99 272.352C519.385 272.352 518.025 272.088 516.912 271.561C515.811 271.021 514.973 270.318 514.398 269.451C513.836 268.572 513.555 267.641 513.555 266.656H515.646C515.717 267.641 516.027 268.42 516.578 268.994C517.129 269.557 517.803 269.955 518.6 270.189C519.408 270.424 520.205 270.541 520.99 270.541C522.068 270.541 522.971 270.383 523.697 270.066C524.424 269.75 524.975 269.334 525.35 268.818C525.725 268.303 525.912 267.746 525.912 267.148ZM540.115 272.352C538.873 272.352 537.73 272.123 536.688 271.666C535.656 271.209 534.754 270.564 533.98 269.732C533.219 268.9 532.627 267.916 532.205 266.779C531.795 265.631 531.59 264.377 531.59 263.018V262.262C531.59 260.797 531.807 259.473 532.24 258.289C532.674 257.105 533.271 256.092 534.033 255.248C534.795 254.404 535.662 253.76 536.635 253.314C537.619 252.857 538.65 252.629 539.729 252.629C540.936 252.629 542.008 252.846 542.945 253.279C543.883 253.701 544.668 254.305 545.301 255.09C545.945 255.863 546.432 256.783 546.76 257.85C547.088 258.904 547.252 260.07 547.252 261.348V262.631H532.855V260.838H545.16V260.592C545.137 259.525 544.92 258.529 544.51 257.604C544.111 256.666 543.514 255.904 542.717 255.318C541.92 254.732 540.924 254.439 539.729 254.439C538.838 254.439 538.018 254.627 537.268 255.002C536.529 255.377 535.891 255.916 535.352 256.619C534.824 257.311 534.414 258.137 534.121 259.098C533.84 260.047 533.699 261.102 533.699 262.262V263.018C533.699 264.072 533.852 265.057 534.156 265.971C534.473 266.873 534.918 267.67 535.492 268.361C536.078 269.053 536.77 269.592 537.566 269.979C538.363 270.365 539.242 270.559 540.203 270.559C541.328 270.559 542.324 270.354 543.191 269.943C544.059 269.521 544.838 268.859 545.529 267.957L546.848 268.977C546.438 269.586 545.922 270.148 545.301 270.664C544.691 271.18 543.959 271.59 543.104 271.895C542.248 272.199 541.252 272.352 540.115 272.352ZM489.666 306.02H491.828C491.652 307.742 491.178 309.23 490.404 310.484C489.631 311.727 488.576 312.682 487.24 313.35C485.904 314.018 484.293 314.352 482.406 314.352C480.953 314.352 479.635 314.076 478.451 313.525C477.279 312.975 476.271 312.195 475.428 311.188C474.584 310.168 473.934 308.949 473.477 307.531C473.02 306.113 472.791 304.537 472.791 302.803V299.604C472.791 297.869 473.02 296.299 473.477 294.893C473.934 293.475 474.59 292.256 475.445 291.236C476.301 290.217 477.326 289.432 478.521 288.881C479.717 288.33 481.064 288.055 482.564 288.055C484.381 288.055 485.951 288.389 487.275 289.057C488.6 289.713 489.643 290.662 490.404 291.904C491.178 293.146 491.652 294.646 491.828 296.404H489.666C489.502 295.021 489.139 293.85 488.576 292.889C488.014 291.928 487.234 291.195 486.238 290.691C485.254 290.176 484.029 289.918 482.564 289.918C481.369 289.918 480.303 290.146 479.365 290.604C478.428 291.061 477.631 291.717 476.975 292.572C476.318 293.416 475.814 294.43 475.463 295.613C475.123 296.797 474.953 298.115 474.953 299.568V302.803C474.953 304.209 475.117 305.504 475.445 306.688C475.773 307.871 476.254 308.896 476.887 309.764C477.531 310.631 478.316 311.305 479.242 311.785C480.168 312.266 481.223 312.506 482.406 312.506C483.918 312.506 485.178 312.266 486.186 311.785C487.205 311.293 487.996 310.566 488.559 309.605C489.121 308.645 489.49 307.449 489.666 306.02ZM511.586 307.707C511.586 307.004 511.469 306.377 511.234 305.826C511 305.275 510.613 304.783 510.074 304.35C509.547 303.904 508.832 303.494 507.93 303.119C507.039 302.732 505.926 302.352 504.59 301.977C503.312 301.613 502.158 301.215 501.127 300.781C500.096 300.348 499.211 299.85 498.473 299.287C497.746 298.725 497.189 298.068 496.803 297.318C496.416 296.557 496.223 295.672 496.223 294.664C496.223 293.68 496.434 292.783 496.855 291.975C497.277 291.166 497.869 290.469 498.631 289.883C499.404 289.297 500.312 288.846 501.355 288.529C502.41 288.213 503.564 288.055 504.818 288.055C506.611 288.055 508.158 288.395 509.459 289.074C510.771 289.754 511.785 290.674 512.5 291.834C513.227 292.982 513.59 294.271 513.59 295.701H511.428C511.428 294.588 511.164 293.598 510.637 292.73C510.121 291.852 509.371 291.166 508.387 290.674C507.414 290.17 506.225 289.918 504.818 289.918C503.412 289.918 502.229 290.135 501.268 290.568C500.318 290.99 499.598 291.559 499.105 292.273C498.625 292.977 498.385 293.762 498.385 294.629C498.385 295.238 498.502 295.801 498.736 296.316C498.971 296.82 499.352 297.295 499.879 297.74C500.418 298.174 501.127 298.584 502.006 298.971C502.885 299.346 503.969 299.703 505.258 300.043C506.617 300.418 507.824 300.834 508.879 301.291C509.934 301.748 510.824 302.275 511.551 302.873C512.277 303.459 512.828 304.145 513.203 304.93C513.578 305.715 513.766 306.629 513.766 307.672C513.766 308.715 513.543 309.652 513.098 310.484C512.664 311.305 512.049 312.002 511.252 312.576C510.467 313.15 509.535 313.59 508.457 313.895C507.391 314.199 506.225 314.352 504.959 314.352C503.822 314.352 502.691 314.205 501.566 313.912C500.441 313.619 499.41 313.168 498.473 312.559C497.547 311.938 496.803 311.141 496.24 310.168C495.689 309.195 495.414 308.035 495.414 306.688H497.559C497.559 307.766 497.775 308.674 498.209 309.412C498.643 310.15 499.217 310.748 499.932 311.205C500.658 311.662 501.455 311.996 502.322 312.207C503.201 312.406 504.08 312.506 504.959 312.506C506.307 312.506 507.473 312.307 508.457 311.908C509.453 311.51 510.221 310.953 510.76 310.238C511.311 309.512 511.586 308.668 511.586 307.707ZM532.926 307.707C532.926 307.004 532.809 306.377 532.574 305.826C532.34 305.275 531.953 304.783 531.414 304.35C530.887 303.904 530.172 303.494 529.27 303.119C528.379 302.732 527.266 302.352 525.93 301.977C524.652 301.613 523.498 301.215 522.467 300.781C521.436 300.348 520.551 299.85 519.812 299.287C519.086 298.725 518.529 298.068 518.143 297.318C517.756 296.557 517.562 295.672 517.562 294.664C517.562 293.68 517.773 292.783 518.195 291.975C518.617 291.166 519.209 290.469 519.971 289.883C520.744 289.297 521.652 288.846 522.695 288.529C523.75 288.213 524.904 288.055 526.158 288.055C527.951 288.055 529.498 288.395 530.799 289.074C532.111 289.754 533.125 290.674 533.84 291.834C534.566 292.982 534.93 294.271 534.93 295.701H532.768C532.768 294.588 532.504 293.598 531.977 292.73C531.461 291.852 530.711 291.166 529.727 290.674C528.754 290.17 527.564 289.918 526.158 289.918C524.752 289.918 523.568 290.135 522.607 290.568C521.658 290.99 520.938 291.559 520.445 292.273C519.965 292.977 519.725 293.762 519.725 294.629C519.725 295.238 519.842 295.801 520.076 296.316C520.311 296.82 520.691 297.295 521.219 297.74C521.758 298.174 522.467 298.584 523.346 298.971C524.225 299.346 525.309 299.703 526.598 300.043C527.957 300.418 529.164 300.834 530.219 301.291C531.273 301.748 532.164 302.275 532.891 302.873C533.617 303.459 534.168 304.145 534.543 304.93C534.918 305.715 535.105 306.629 535.105 307.672C535.105 308.715 534.883 309.652 534.438 310.484C534.004 311.305 533.389 312.002 532.592 312.576C531.807 313.15 530.875 313.59 529.797 313.895C528.73 314.199 527.564 314.352 526.299 314.352C525.162 314.352 524.031 314.205 522.906 313.912C521.781 313.619 520.75 313.168 519.812 312.559C518.887 311.938 518.143 311.141 517.58 310.168C517.029 309.195 516.754 308.035 516.754 306.688H518.898C518.898 307.766 519.115 308.674 519.549 309.412C519.982 310.15 520.557 310.748 521.271 311.205C521.998 311.662 522.795 311.996 523.662 312.207C524.541 312.406 525.42 312.506 526.299 312.506C527.646 312.506 528.812 312.307 529.797 311.908C530.793 311.51 531.561 310.953 532.1 310.238C532.65 309.512 532.926 308.668 532.926 307.707Z" fill="black"/>
<path d="M472.533 58.0195H474.695C474.52 59.7422 474.045 61.2305 473.271 62.4844C472.498 63.7266 471.443 64.6816 470.107 65.3496C468.771 66.0176 467.16 66.3516 465.273 66.3516C463.82 66.3516 462.502 66.0762 461.318 65.5254C460.146 64.9746 459.139 64.1953 458.295 63.1875C457.451 62.168 456.801 60.9492 456.344 59.5312C455.887 58.1133 455.658 56.5371 455.658 54.8027V51.6035C455.658 49.8691 455.887 48.2988 456.344 46.8926C456.801 45.4746 457.457 44.2559 458.312 43.2363C459.168 42.2168 460.193 41.4316 461.389 40.8809C462.584 40.3301 463.932 40.0547 465.432 40.0547C467.248 40.0547 468.818 40.3887 470.143 41.0566C471.467 41.7129 472.51 42.6621 473.271 43.9043C474.045 45.1465 474.52 46.6465 474.695 48.4043H472.533C472.369 47.0215 472.006 45.8496 471.443 44.8887C470.881 43.9277 470.102 43.1953 469.105 42.6914C468.121 42.1758 466.896 41.918 465.432 41.918C464.236 41.918 463.17 42.1465 462.232 42.6035C461.295 43.0605 460.498 43.7168 459.842 44.5723C459.186 45.416 458.682 46.4297 458.33 47.6133C457.99 48.7969 457.82 50.1152 457.82 51.5684V54.8027C457.82 56.209 457.984 57.5039 458.312 58.6875C458.641 59.8711 459.121 60.8965 459.754 61.7637C460.398 62.6309 461.184 63.3047 462.109 63.7852C463.035 64.2656 464.09 64.5059 465.273 64.5059C466.785 64.5059 468.045 64.2656 469.053 63.7852C470.072 63.293 470.863 62.5664 471.426 61.6055C471.988 60.6445 472.357 59.4492 472.533 58.0195ZM481.568 50.127V66H479.477V46.9805H481.516L481.568 50.127ZM488.301 46.8398L488.248 48.7734C488.014 48.7383 487.785 48.709 487.562 48.6855C487.34 48.6621 487.1 48.6504 486.842 48.6504C485.928 48.6504 485.125 48.8203 484.434 49.1602C483.754 49.4883 483.18 49.9512 482.711 50.5488C482.242 51.1348 481.885 51.8262 481.639 52.623C481.393 53.4082 481.252 54.252 481.217 55.1543L480.443 55.4531C480.443 54.2109 480.572 53.0566 480.83 51.9902C481.088 50.9238 481.48 49.9922 482.008 49.1953C482.547 48.3867 483.221 47.7598 484.029 47.3145C484.85 46.8574 485.811 46.6289 486.912 46.6289C487.182 46.6289 487.445 46.6523 487.703 46.6992C487.973 46.7344 488.172 46.7812 488.301 46.8398ZM498.602 66.3516C497.359 66.3516 496.217 66.123 495.174 65.666C494.143 65.209 493.24 64.5645 492.467 63.7324C491.705 62.9004 491.113 61.916 490.691 60.7793C490.281 59.6309 490.076 58.377 490.076 57.0176V56.2617C490.076 54.7969 490.293 53.4727 490.727 52.2891C491.16 51.1055 491.758 50.0918 492.52 49.248C493.281 48.4043 494.148 47.7598 495.121 47.3145C496.105 46.8574 497.137 46.6289 498.215 46.6289C499.422 46.6289 500.494 46.8457 501.432 47.2793C502.369 47.7012 503.154 48.3047 503.787 49.0898C504.432 49.8633 504.918 50.7832 505.246 51.8496C505.574 52.9043 505.738 54.0703 505.738 55.3477V56.6309H491.342V54.8379H503.646V54.5918C503.623 53.5254 503.406 52.5293 502.996 51.6035C502.598 50.666 502 49.9043 501.203 49.3184C500.406 48.7324 499.41 48.4395 498.215 48.4395C497.324 48.4395 496.504 48.627 495.754 49.002C495.016 49.377 494.377 49.916 493.838 50.6191C493.311 51.3105 492.9 52.1367 492.607 53.0977C492.326 54.0469 492.186 55.1016 492.186 56.2617V57.0176C492.186 58.0723 492.338 59.0566 492.643 59.9707C492.959 60.873 493.404 61.6699 493.979 62.3613C494.564 63.0527 495.256 63.5918 496.053 63.9785C496.85 64.3652 497.729 64.5586 498.689 64.5586C499.814 64.5586 500.811 64.3535 501.678 63.9434C502.545 63.5215 503.324 62.8594 504.016 61.957L505.334 62.9766C504.924 63.5859 504.408 64.1484 503.787 64.6641C503.178 65.1797 502.445 65.5898 501.59 65.8945C500.734 66.1992 499.738 66.3516 498.602 66.3516ZM521.453 62.5898V52.7812C521.453 51.8789 521.266 51.0996 520.891 50.4434C520.516 49.7871 519.965 49.2832 519.238 48.9316C518.512 48.5801 517.615 48.4043 516.549 48.4043C515.564 48.4043 514.686 48.5801 513.912 48.9316C513.15 49.2715 512.547 49.7344 512.102 50.3203C511.668 50.8945 511.451 51.5332 511.451 52.2363L509.342 52.2188C509.342 51.5039 509.518 50.8125 509.869 50.1445C510.221 49.4766 510.719 48.8789 511.363 48.3516C512.008 47.8242 512.775 47.4082 513.666 47.1035C514.568 46.7871 515.559 46.6289 516.637 46.6289C517.996 46.6289 519.191 46.8574 520.223 47.3145C521.266 47.7715 522.08 48.457 522.666 49.3711C523.252 50.2852 523.545 51.4336 523.545 52.8164V62.0098C523.545 62.666 523.592 63.3457 523.686 64.0488C523.791 64.752 523.938 65.332 524.125 65.7891V66H521.893C521.752 65.5781 521.641 65.0508 521.559 64.418C521.488 63.7734 521.453 63.1641 521.453 62.5898ZM521.945 54.9258L521.98 56.543H517.85C516.771 56.543 515.805 56.6426 514.949 56.8418C514.105 57.0293 513.391 57.3105 512.805 57.6855C512.219 58.0488 511.768 58.4883 511.451 59.0039C511.146 59.5195 510.994 60.1055 510.994 60.7617C510.994 61.4414 511.164 62.0625 511.504 62.625C511.855 63.1875 512.348 63.6387 512.98 63.9785C513.625 64.3066 514.387 64.4707 515.266 64.4707C516.438 64.4707 517.469 64.2539 518.359 63.8203C519.262 63.3867 520.006 62.8184 520.592 62.1152C521.178 61.4121 521.57 60.6445 521.77 59.8125L522.684 61.0254C522.531 61.6113 522.25 62.2148 521.84 62.8359C521.441 63.4453 520.92 64.0195 520.275 64.5586C519.631 65.0859 518.869 65.5195 517.99 65.8594C517.123 66.1875 516.139 66.3516 515.037 66.3516C513.795 66.3516 512.711 66.1172 511.785 65.6484C510.871 65.1797 510.156 64.541 509.641 63.7324C509.137 62.9121 508.885 61.9863 508.885 60.9551C508.885 60.0176 509.084 59.1797 509.482 58.4414C509.881 57.6914 510.455 57.0586 511.205 56.543C511.967 56.0156 512.881 55.6172 513.947 55.3477C515.025 55.0664 516.232 54.9258 517.568 54.9258H521.945ZM536.377 46.9805V48.7031H526.85V46.9805H536.377ZM530.348 42.0938H532.439V61.377C532.439 62.2559 532.557 62.918 532.791 63.3633C533.025 63.8086 533.33 64.1074 533.705 64.2598C534.08 64.4121 534.484 64.4883 534.918 64.4883C535.234 64.4883 535.539 64.4707 535.832 64.4355C536.125 64.3887 536.389 64.3418 536.623 64.2949L536.711 66.0703C536.453 66.1523 536.119 66.2168 535.709 66.2637C535.299 66.3223 534.889 66.3516 534.479 66.3516C533.67 66.3516 532.955 66.2051 532.334 65.9121C531.713 65.6074 531.227 65.0918 530.875 64.3652C530.523 63.627 530.348 62.625 530.348 61.3594V42.0938ZM548.137 66.3516C546.895 66.3516 545.752 66.123 544.709 65.666C543.678 65.209 542.775 64.5645 542.002 63.7324C541.24 62.9004 540.648 61.916 540.227 60.7793C539.816 59.6309 539.611 58.377 539.611 57.0176V56.2617C539.611 54.7969 539.828 53.4727 540.262 52.2891C540.695 51.1055 541.293 50.0918 542.055 49.248C542.816 48.4043 543.684 47.7598 544.656 47.3145C545.641 46.8574 546.672 46.6289 547.75 46.6289C548.957 46.6289 550.029 46.8457 550.967 47.2793C551.904 47.7012 552.689 48.3047 553.322 49.0898C553.967 49.8633 554.453 50.7832 554.781 51.8496C555.109 52.9043 555.273 54.0703 555.273 55.3477V56.6309H540.877V54.8379H553.182V54.5918C553.158 53.5254 552.941 52.5293 552.531 51.6035C552.133 50.666 551.535 49.9043 550.738 49.3184C549.941 48.7324 548.945 48.4395 547.75 48.4395C546.859 48.4395 546.039 48.627 545.289 49.002C544.551 49.377 543.912 49.916 543.373 50.6191C542.846 51.3105 542.436 52.1367 542.143 53.0977C541.861 54.0469 541.721 55.1016 541.721 56.2617V57.0176C541.721 58.0723 541.873 59.0566 542.178 59.9707C542.494 60.873 542.939 61.6699 543.514 62.3613C544.1 63.0527 544.791 63.5918 545.588 63.9785C546.385 64.3652 547.264 64.5586 548.225 64.5586C549.35 64.5586 550.346 64.3535 551.213 63.9434C552.08 63.5215 552.859 62.8594 553.551 61.957L554.869 62.9766C554.459 63.5859 553.943 64.1484 553.322 64.6641C552.713 65.1797 551.98 65.5898 551.125 65.8945C550.27 66.1992 549.273 66.3516 548.137 66.3516ZM475.697 108H469.896L469.932 106.154H475.697C477.537 106.154 479.119 105.744 480.443 104.924C481.779 104.092 482.811 102.943 483.537 101.479C484.264 100.014 484.627 98.3145 484.627 96.3809V93.9902C484.627 92.5137 484.416 91.1777 483.994 89.9824C483.584 88.7871 482.992 87.7676 482.219 86.9238C481.445 86.0684 480.52 85.4121 479.441 84.9551C478.375 84.498 477.18 84.2695 475.855 84.2695H469.791V82.4062H475.855C477.449 82.4062 478.908 82.6816 480.232 83.2324C481.568 83.7715 482.723 84.5566 483.695 85.5879C484.68 86.6074 485.436 87.832 485.963 89.2617C486.502 90.6914 486.771 92.2852 486.771 94.043V96.3809C486.771 98.1387 486.502 99.7324 485.963 101.162C485.436 102.592 484.68 103.816 483.695 104.836C482.711 105.855 481.545 106.641 480.197 107.191C478.85 107.73 477.35 108 475.697 108ZM470.863 82.4062V108H468.701V82.4062H470.863ZM511.188 93.832V96.5742C511.188 98.3672 510.953 99.9902 510.484 101.443C510.027 102.885 509.359 104.121 508.48 105.152C507.613 106.184 506.57 106.975 505.352 107.525C504.133 108.076 502.762 108.352 501.238 108.352C499.75 108.352 498.391 108.076 497.16 107.525C495.941 106.975 494.893 106.184 494.014 105.152C493.135 104.121 492.455 102.885 491.975 101.443C491.494 99.9902 491.254 98.3672 491.254 96.5742V93.832C491.254 92.0391 491.488 90.4219 491.957 88.9805C492.438 87.5273 493.117 86.2852 493.996 85.2539C494.875 84.2227 495.924 83.4316 497.143 82.8809C498.361 82.3301 499.715 82.0547 501.203 82.0547C502.727 82.0547 504.098 82.3301 505.316 82.8809C506.535 83.4316 507.584 84.2227 508.463 85.2539C509.342 86.2852 510.016 87.5273 510.484 88.9805C510.953 90.4219 511.188 92.0391 511.188 93.832ZM509.043 96.5742V93.7969C509.043 92.2852 508.867 90.9258 508.516 89.7188C508.176 88.5117 507.666 87.4805 506.986 86.625C506.318 85.7695 505.498 85.1133 504.525 84.6562C503.553 84.1992 502.445 83.9707 501.203 83.9707C499.996 83.9707 498.912 84.1992 497.951 84.6562C496.99 85.1133 496.17 85.7695 495.49 86.625C494.822 87.4805 494.307 88.5117 493.943 89.7188C493.592 90.9258 493.416 92.2852 493.416 93.7969V96.5742C493.416 98.0977 493.592 99.4688 493.943 100.688C494.307 101.895 494.828 102.932 495.508 103.799C496.188 104.654 497.008 105.311 497.969 105.768C498.941 106.225 500.031 106.453 501.238 106.453C502.492 106.453 503.6 106.225 504.561 105.768C505.521 105.311 506.336 104.654 507.004 103.799C507.672 102.932 508.176 101.895 508.516 100.688C508.867 99.4688 509.043 98.0977 509.043 96.5742ZM517.322 82.4062H519.502L528.959 104.941L538.434 82.4062H540.596L529.785 108H528.133L517.322 82.4062ZM516.654 82.4062H518.57L518.799 96.8203V108H516.654V82.4062ZM539.383 82.4062H541.299V108H539.137V96.8203L539.383 82.4062Z" fill="black"/>
<path d="M671.689 87H665.889L665.924 85.1543H671.689C673.529 85.1543 675.111 84.7441 676.436 83.9238C677.771 83.0918 678.803 81.9434 679.529 80.4785C680.256 79.0137 680.619 77.3145 680.619 75.3809V72.9902C680.619 71.5137 680.408 70.1777 679.986 68.9824C679.576 67.7871 678.984 66.7676 678.211 65.9238C677.438 65.0684 676.512 64.4121 675.434 63.9551C674.367 63.498 673.172 63.2695 671.848 63.2695H665.783V61.4062H671.848C673.441 61.4062 674.9 61.6816 676.225 62.2324C677.561 62.7715 678.715 63.5566 679.688 64.5879C680.672 65.6074 681.428 66.832 681.955 68.2617C682.494 69.6914 682.764 71.2852 682.764 73.043V75.3809C682.764 77.1387 682.494 78.7324 681.955 80.1621C681.428 81.5918 680.672 82.8164 679.688 83.8359C678.703 84.8555 677.537 85.6406 676.189 86.1914C674.842 86.7305 673.342 87 671.689 87ZM666.855 61.4062V87H664.693V61.4062H666.855ZM690.129 67.9805V87H688.037V67.9805H690.129ZM687.668 62.4785C687.668 62.0801 687.791 61.7461 688.037 61.4766C688.295 61.1953 688.646 61.0547 689.092 61.0547C689.537 61.0547 689.889 61.1953 690.146 61.4766C690.416 61.7461 690.551 62.0801 690.551 62.4785C690.551 62.8652 690.416 63.1992 690.146 63.4805C689.889 63.75 689.537 63.8848 689.092 63.8848C688.646 63.8848 688.295 63.75 688.037 63.4805C687.791 63.1992 687.668 62.8652 687.668 62.4785ZM707.268 82.1484C707.268 81.6328 707.139 81.123 706.881 80.6191C706.623 80.1152 706.125 79.6523 705.387 79.2305C704.66 78.8086 703.588 78.4512 702.17 78.1582C701.115 77.9238 700.172 77.6602 699.34 77.3672C698.52 77.0742 697.828 76.7227 697.266 76.3125C696.703 75.9023 696.275 75.4102 695.982 74.8359C695.689 74.2617 695.543 73.582 695.543 72.7969C695.543 72.0938 695.695 71.4316 696 70.8105C696.316 70.1777 696.762 69.627 697.336 69.1582C697.922 68.6777 698.625 68.3027 699.445 68.0332C700.277 67.7637 701.209 67.6289 702.24 67.6289C703.705 67.6289 704.959 67.8809 706.002 68.3848C707.057 68.877 707.859 69.5508 708.41 70.4062C708.973 71.2617 709.254 72.2285 709.254 73.3066H707.162C707.162 72.6504 706.969 72.0293 706.582 71.4434C706.207 70.8574 705.65 70.377 704.912 70.002C704.186 69.627 703.295 69.4395 702.24 69.4395C701.15 69.4395 700.266 69.6035 699.586 69.9316C698.906 70.2598 698.408 70.6758 698.092 71.1797C697.787 71.6836 697.635 72.2051 697.635 72.7441C697.635 73.166 697.699 73.5527 697.828 73.9043C697.969 74.2441 698.215 74.5605 698.566 74.8535C698.93 75.1465 699.445 75.4219 700.113 75.6797C700.781 75.9375 701.648 76.1895 702.715 76.4355C704.25 76.7754 705.504 77.1914 706.477 77.6836C707.461 78.1641 708.188 78.7617 708.656 79.4766C709.125 80.1797 709.359 81.0352 709.359 82.043C709.359 82.8281 709.195 83.5488 708.867 84.2051C708.539 84.8496 708.064 85.4062 707.443 85.875C706.834 86.3438 706.096 86.707 705.229 86.9648C704.373 87.2227 703.412 87.3516 702.346 87.3516C700.74 87.3516 699.381 87.0879 698.268 86.5605C697.166 86.0215 696.328 85.3184 695.754 84.4512C695.191 83.5723 694.91 82.6406 694.91 81.6562H697.002C697.072 82.6406 697.383 83.4199 697.934 83.9941C698.484 84.5566 699.158 84.9551 699.955 85.1895C700.764 85.4238 701.561 85.541 702.346 85.541C703.424 85.541 704.326 85.3828 705.053 85.0664C705.779 84.75 706.33 84.334 706.705 83.8184C707.08 83.3027 707.268 82.7461 707.268 82.1484ZM716.197 71.6367V94.3125H714.088V67.9805H716.057L716.197 71.6367ZM729.416 77.3145V77.6836C729.416 79.1016 729.252 80.4023 728.924 81.5859C728.596 82.7695 728.121 83.7949 727.5 84.6621C726.891 85.5176 726.135 86.1797 725.232 86.6484C724.33 87.1172 723.305 87.3516 722.156 87.3516C721.02 87.3516 720.006 87.1758 719.115 86.8242C718.225 86.4727 717.457 85.9746 716.812 85.3301C716.18 84.6738 715.67 83.9121 715.283 83.0449C714.908 82.166 714.645 81.2051 714.492 80.1621V75.293C714.668 74.1445 714.955 73.1016 715.354 72.1641C715.752 71.2266 716.262 70.418 716.883 69.7383C717.516 69.0586 718.266 68.5371 719.133 68.1738C720 67.8105 720.99 67.6289 722.104 67.6289C723.264 67.6289 724.295 67.8574 725.197 68.3145C726.111 68.7598 726.879 69.4102 727.5 70.2656C728.133 71.1094 728.607 72.1289 728.924 73.3242C729.252 74.5078 729.416 75.8379 729.416 77.3145ZM727.307 77.6836V77.3145C727.307 76.2012 727.189 75.1699 726.955 74.2207C726.732 73.2715 726.387 72.4453 725.918 71.7422C725.461 71.0273 724.875 70.4707 724.16 70.0723C723.457 69.6738 722.619 69.4746 721.646 69.4746C720.639 69.4746 719.777 69.6445 719.062 69.9844C718.359 70.3125 717.773 70.752 717.305 71.3027C716.836 71.8418 716.467 72.4336 716.197 73.0781C715.928 73.7227 715.729 74.3555 715.6 74.9766V80.584C715.822 81.4746 716.18 82.3008 716.672 83.0625C717.164 83.8125 717.82 84.416 718.641 84.873C719.473 85.3184 720.486 85.541 721.682 85.541C722.643 85.541 723.475 85.3418 724.178 84.9434C724.881 84.5449 725.461 83.9883 725.918 83.2734C726.387 82.5586 726.732 81.7266 726.955 80.7773C727.189 79.8281 727.307 78.7969 727.307 77.6836ZM736.43 60V87H734.338V60H736.43ZM753.744 83.5898V73.7812C753.744 72.8789 753.557 72.0996 753.182 71.4434C752.807 70.7871 752.256 70.2832 751.529 69.9316C750.803 69.5801 749.906 69.4043 748.84 69.4043C747.855 69.4043 746.977 69.5801 746.203 69.9316C745.441 70.2715 744.838 70.7344 744.393 71.3203C743.959 71.8945 743.742 72.5332 743.742 73.2363L741.633 73.2188C741.633 72.5039 741.809 71.8125 742.16 71.1445C742.512 70.4766 743.01 69.8789 743.654 69.3516C744.299 68.8242 745.066 68.4082 745.957 68.1035C746.859 67.7871 747.85 67.6289 748.928 67.6289C750.287 67.6289 751.482 67.8574 752.514 68.3145C753.557 68.7715 754.371 69.457 754.957 70.3711C755.543 71.2852 755.836 72.4336 755.836 73.8164V83.0098C755.836 83.666 755.883 84.3457 755.977 85.0488C756.082 85.752 756.229 86.332 756.416 86.7891V87H754.184C754.043 86.5781 753.932 86.0508 753.85 85.418C753.779 84.7734 753.744 84.1641 753.744 83.5898ZM754.236 75.9258L754.271 77.543H750.141C749.062 77.543 748.096 77.6426 747.24 77.8418C746.396 78.0293 745.682 78.3105 745.096 78.6855C744.51 79.0488 744.059 79.4883 743.742 80.0039C743.438 80.5195 743.285 81.1055 743.285 81.7617C743.285 82.4414 743.455 83.0625 743.795 83.625C744.146 84.1875 744.639 84.6387 745.271 84.9785C745.916 85.3066 746.678 85.4707 747.557 85.4707C748.729 85.4707 749.76 85.2539 750.65 84.8203C751.553 84.3867 752.297 83.8184 752.883 83.1152C753.469 82.4121 753.861 81.6445 754.061 80.8125L754.975 82.0254C754.822 82.6113 754.541 83.2148 754.131 83.8359C753.732 84.4453 753.211 85.0195 752.566 85.5586C751.922 86.0859 751.16 86.5195 750.281 86.8594C749.414 87.1875 748.43 87.3516 747.328 87.3516C746.086 87.3516 745.002 87.1172 744.076 86.6484C743.162 86.1797 742.447 85.541 741.932 84.7324C741.428 83.9121 741.176 82.9863 741.176 81.9551C741.176 81.0176 741.375 80.1797 741.773 79.4414C742.172 78.6914 742.746 78.0586 743.496 77.543C744.258 77.0156 745.172 76.6172 746.238 76.3477C747.316 76.0664 748.523 75.9258 749.859 75.9258H754.236ZM766.84 85.1016L772.764 67.9805H775.031L766.98 90.0586C766.816 90.4922 766.605 90.9727 766.348 91.5C766.102 92.0273 765.773 92.5312 765.363 93.0117C764.965 93.5039 764.461 93.9023 763.852 94.207C763.254 94.5234 762.521 94.6816 761.654 94.6816C761.432 94.6816 761.145 94.6523 760.793 94.5938C760.453 94.5469 760.207 94.5 760.055 94.4531L760.037 92.6777C760.166 92.7129 760.354 92.7422 760.6 92.7656C760.846 92.7891 761.016 92.8008 761.109 92.8008C761.871 92.8008 762.51 92.6719 763.025 92.4141C763.553 92.1562 763.992 91.7695 764.344 91.2539C764.695 90.75 765.006 90.1172 765.275 89.3555L766.84 85.1016ZM761.303 67.9805L767.367 84.3105L767.93 86.5078L766.4 87.3691L759.018 67.9805H761.303Z" fill="black"/>
</svg>
