<svg width="1000" height="563" viewBox="0 0 1000 563" fill="none" xmlns="http://www.w3.org/2000/svg">
<rect width="1000" height="563" fill="white"/>
<path d="M450.062 410.197C454.032 410.197 457.265 406.963 457.265 402.992C457.265 399.016 454.032 395.783 450.062 395.783C446.082 395.783 442.848 399.016 442.848 402.992C442.848 406.963 446.081 410.197 450.062 410.197Z" fill="#A2A2A2"/>
<path d="M401.675 409.341C405.18 409.341 408.033 406.494 408.033 402.99C408.033 399.485 405.18 396.638 401.675 396.638C398.177 396.638 395.329 399.485 395.329 402.99C395.329 406.494 398.177 409.341 401.675 409.341Z" fill="#A2A2A2"/>
<path d="M500.501 409.341C504.007 409.341 506.86 406.494 506.86 402.99C506.86 399.485 504.007 396.638 500.501 396.638C497.002 396.638 494.155 399.485 494.155 402.99C494.155 406.494 497.002 409.341 500.501 409.341Z" fill="#A2A2A2"/>
<path d="M348.487 409.341C351.991 409.341 354.839 406.494 354.839 402.99C354.839 399.485 351.991 396.638 348.487 396.638C344.988 396.638 342.141 399.485 342.141 402.99C342.141 406.494 344.989 409.341 348.487 409.341Z" fill="#A2A2A2"/>
<path d="M565.102 429.241V427.502C577.269 425.977 586.721 415.566 586.721 402.992C586.721 390.413 577.269 380.002 565.102 378.477V376.742H329.619V378.477C317.446 380.002 308 390.413 308 402.992C308 415.566 317.446 425.978 329.619 427.502V429.241H565.102ZM348.487 390.461C354.325 390.461 359.198 394.491 360.585 399.903H389.582C390.962 394.491 395.835 390.461 401.675 390.461C407.512 390.461 412.388 394.491 413.775 399.903H437.071C438.47 394.009 443.748 389.606 450.062 389.606C456.372 389.606 461.643 394.009 463.05 399.903H488.408C489.788 394.491 494.662 390.461 500.501 390.461C506.339 390.461 511.214 394.491 512.6 399.903H538.333C539.718 394.491 544.595 390.461 550.432 390.461C557.34 390.461 562.955 396.084 562.955 402.992C562.955 409.895 557.34 415.517 550.432 415.517C544.595 415.517 539.718 411.489 538.333 406.079H512.6C511.215 411.489 506.339 415.517 500.501 415.517C494.662 415.517 489.788 411.489 488.408 406.079H463.05C461.643 411.971 456.372 416.374 450.062 416.374C443.749 416.374 438.47 411.971 437.071 406.079H413.775C412.389 411.489 407.513 415.517 401.675 415.517C395.835 415.517 390.963 411.489 389.582 406.079H360.586C359.198 411.489 354.325 415.517 348.488 415.517C341.58 415.517 335.965 409.895 335.965 402.992C335.965 396.083 341.579 390.461 348.487 390.461Z" fill="#A2A2A2"/>
<path d="M550.432 409.341C553.931 409.341 556.778 406.494 556.778 402.99C556.778 399.485 553.931 396.638 550.432 396.638C546.927 396.638 544.075 399.485 544.075 402.99C544.075 406.494 546.927 409.341 550.432 409.341Z" fill="#A2A2A2"/>
<path d="M544.075 300.755L523.241 264.455H457.266V297.668L420.808 299.213V290.719L372.167 289.947V297.668H354.839V319.537H420.808V328.551H354.839V356.809H544.075V300.755ZM530.963 319.537H469.448V275.387H515.521L530.963 297.462V319.537Z" fill="#A2A2A2"/>
<path d="M514.748 220.46L578.06 172.592V145.568L500.501 191.892L469.448 255.203H514.748V220.46Z" fill="#A2A2A2"/>
<path d="M687.694 296.123L598.905 134.759L586.721 145.568V167.958L666.075 296.123H687.694Z" fill="#A2A2A2"/>
<path d="M671.481 310.629C671.999 355.543 629.788 356.808 629.788 356.808C715.5 390.473 687.694 310.629 687.694 310.629H671.481Z" fill="#A2A2A2"/>
</svg>
