<svg width="1000" height="563" viewBox="0 0 1000 563" fill="none" xmlns="http://www.w3.org/2000/svg">
<rect width="1000" height="563" fill="#F3F3F3"/>
<path d="M197.414 431.674C200.919 431.674 203.773 428.819 203.773 425.313C203.773 421.803 200.919 418.949 197.414 418.949C193.9 418.949 191.046 421.803 191.046 425.313C191.045 428.819 193.9 431.674 197.414 431.674Z" fill="#7D7CA7"/>
<path d="M154.698 430.918C157.792 430.918 160.31 428.405 160.31 425.312C160.31 422.217 157.792 419.704 154.698 419.704C151.61 419.704 149.095 422.217 149.095 425.312C149.095 428.405 151.609 430.918 154.698 430.918Z" fill="#7D7CA7"/>
<path d="M241.942 430.918C245.037 430.918 247.556 428.405 247.556 425.312C247.556 422.217 245.037 419.704 241.942 419.704C238.854 419.704 236.34 422.217 236.34 425.312C236.34 428.405 238.854 430.918 241.942 430.918Z" fill="#7D7CA7"/>
<path d="M107.742 430.918C110.836 430.918 113.35 428.405 113.35 425.312C113.35 422.217 110.836 419.704 107.742 419.704C104.653 419.704 102.14 422.217 102.14 425.312C102.14 428.405 104.654 430.918 107.742 430.918Z" fill="#7D7CA7"/>
<path d="M298.973 448.486V446.951C309.714 445.605 318.058 436.414 318.058 425.313C318.058 414.209 309.714 405.017 298.973 403.671V402.139H91.0856V403.671C80.3387 405.017 72 414.208 72 425.313C72 436.414 80.3387 445.606 91.0856 446.951V448.486H298.973ZM107.742 414.251C112.896 414.251 117.198 417.808 118.423 422.586H144.021C145.24 417.808 149.542 414.251 154.697 414.251C159.851 414.251 164.155 417.808 165.379 422.586H185.945C187.18 417.383 191.84 413.496 197.414 413.496C202.985 413.496 207.638 417.383 208.88 422.586H231.266C232.484 417.808 236.787 414.251 241.942 414.251C247.096 414.251 251.4 417.808 252.624 422.586H275.341C276.564 417.808 280.869 414.251 286.022 414.251C292.12 414.251 297.078 419.214 297.078 425.313C297.078 431.407 292.12 436.371 286.022 436.371C280.869 436.371 276.564 432.814 275.341 428.039H252.624C251.401 432.814 247.096 436.371 241.942 436.371C236.788 436.371 232.485 432.814 231.266 428.039H208.881C207.638 433.24 202.985 437.127 197.414 437.127C191.841 437.127 187.181 433.24 185.945 428.039H165.38C164.156 432.814 159.851 436.371 154.698 436.371C149.542 436.371 145.24 432.814 144.022 428.039H118.423C117.199 432.814 112.896 436.371 107.743 436.371C101.645 436.371 96.6879 431.407 96.6879 425.313C96.6879 419.214 101.644 414.251 107.742 414.251Z" fill="#7D7CA7"/>
<path d="M286.022 430.918C289.111 430.918 291.625 428.405 291.625 425.312C291.625 422.217 289.111 419.704 286.022 419.704C282.928 419.704 280.41 422.217 280.41 425.312C280.41 428.405 282.928 430.918 286.022 430.918Z" fill="#7D7CA7"/>
<path d="M280.41 335.057L262.017 303.011H203.774V332.332L171.588 333.695V326.197L128.647 325.515V332.332H113.35V351.638H171.588V359.595H113.35V384.542H280.41V335.057ZM268.835 351.638H214.528V312.662H255.203L268.835 332.15V351.638Z" fill="#7D7CA7"/>
<path d="M254.52 264.171L310.413 221.913V198.056L241.942 238.952L214.528 294.843H254.52V264.171Z" fill="#7D7CA7"/>
<path d="M407.198 330.968L328.815 188.514L318.058 198.056V217.823L388.113 330.968H407.198Z" fill="#7D7CA7"/>
<path d="M392.885 343.774C393.343 383.425 356.079 384.541 356.079 384.541C431.746 414.261 407.198 343.774 407.198 343.774H392.885Z" fill="#7D7CA7"/>
<g clip-path="url(#clip0_613_107)">
<path d="M608.5 215.616C613.57 215.616 617.68 211.535 617.68 206.5C617.68 201.465 613.57 197.384 608.5 197.384C603.43 197.384 599.32 201.465 599.32 206.5C599.32 211.535 603.43 215.616 608.5 215.616Z" fill="#61DAFB"/>
<path d="M608.5 225.177C635.706 225.177 657.761 216.815 657.761 206.5C657.761 196.185 635.706 187.823 608.5 187.823C581.294 187.823 559.239 196.185 559.239 206.5C559.239 216.815 581.294 225.177 608.5 225.177Z" stroke="#61DAFB"/>
<path d="M592.211 215.839C605.814 239.235 624.134 254.02 633.13 248.863C642.127 243.705 638.392 220.558 624.789 197.161C611.186 173.765 592.866 158.98 583.87 164.137C574.874 169.295 578.608 192.442 592.211 215.839Z" stroke="#61DAFB"/>
<path d="M592.211 197.161C578.608 220.558 574.874 243.705 583.87 248.863C592.866 254.02 611.186 239.235 624.789 215.839C638.392 192.442 642.127 169.295 633.13 164.137C624.134 158.98 605.814 173.765 592.211 197.161Z" stroke="#61DAFB"/>
</g>
<g clip-path="url(#clip1_613_107)">
<path d="M523.027 302H546.93V303.889H525.218V318.104H545.635V319.993H525.218V335.6H547.179V337.489H523.027V302ZM549.071 302H551.611L562.865 317.607L574.368 302L590.014 282.176L564.309 319.247L577.555 337.489H574.915L562.865 320.888L550.764 337.489H548.175L561.52 319.247L549.071 302ZM578.501 303.889V302H605.739V303.889H593.191V337.489H591V303.889H578.501Z" fill="black"/>
<path d="M493.124 302H495.863L533.63 358.186L518.023 337.489L495.415 304.684L495.316 337.489H493.124V302Z" fill="black"/>
<path d="M605.519 335.03C605.972 335.03 606.302 334.685 606.302 334.24C606.302 333.794 605.972 333.449 605.519 333.449C605.071 333.449 604.735 333.794 604.735 334.24C604.735 334.685 605.071 335.03 605.519 335.03ZM607.672 332.95C607.672 334.266 608.626 335.126 610.016 335.126C611.498 335.126 612.393 334.24 612.393 332.701V327.285H611.2V332.696C611.2 333.55 610.768 334.006 610.006 334.006C609.324 334.006 608.86 333.582 608.844 332.95H607.672ZM613.955 332.882C614.04 334.25 615.186 335.126 616.891 335.126C618.714 335.126 619.854 334.208 619.854 332.744C619.854 331.592 619.204 330.956 617.626 330.59L616.779 330.383C615.777 330.149 615.372 329.836 615.372 329.29C615.372 328.6 616.001 328.149 616.944 328.149C617.84 328.149 618.458 328.59 618.57 329.295H619.731C619.662 328.006 618.522 327.099 616.96 327.099C615.282 327.099 614.163 328.006 614.163 329.37C614.163 330.494 614.797 331.163 616.188 331.486L617.179 331.725C618.197 331.964 618.644 332.314 618.644 332.897C618.644 333.576 617.941 334.07 616.982 334.07C615.953 334.07 615.239 333.608 615.138 332.882H613.955Z" fill="black"/>
</g>
<path d="M711.582 403.688H635.418C631.879 403.688 629 406.567 629 410.106V452.894C629 456.433 631.879 459.312 635.418 459.312H711.582C715.121 459.312 718 456.433 718 452.894V410.106C718 406.567 715.121 403.688 711.582 403.688ZM679.062 448.177L667.938 448.188V431.5L659.594 442.197L651.25 431.5V448.188H640.125V414.812H651.25L659.594 425.938L667.938 414.812L679.062 414.802V448.177ZM695.671 450.958L681.844 431.5H690.188V414.812H701.312V431.5H709.656L695.671 450.958Z" fill="black"/>
<path d="M750.451 231.077C782.356 245.386 789.312 219 789.312 219C789.312 219 783.253 252.096 755.278 265.616C749.579 268.374 746.039 269.852 746.039 269.852L700.213 247.618L746.04 228.914C746.039 228.914 744.934 228.602 750.451 231.077Z" fill="#86BA0C"/>
<path d="M740.699 328L698 304.991V257.538L740.699 279.14V328Z" fill="#EF7C00"/>
<path d="M750.303 328L793 304.991V257.538L750.303 279.14V328Z" fill="#BD1789"/>
<defs>
<clipPath id="clip0_613_107">
<rect width="103" height="91" fill="white" transform="translate(557 161)"/>
</clipPath>
<clipPath id="clip1_613_107">
<rect width="127" height="76" fill="white" transform="translate(493 282)"/>
</clipPath>
</defs>
</svg>
